<svg width="387" height="580" viewBox="0 0 387 580" fill="none" xmlns="http://www.w3.org/2000/svg">
<g clip-path="url(#clip0_51_2)">
<path d="M96.7693 580C150.165 580 193.5 536.694 193.5 483.333V386.667H96.7693C43.374 386.667 0.0386963 429.973 0.0386963 483.333C0.0386963 536.694 43.374 580 96.7693 580Z" fill="#0ACF83"/>
<path d="M0.0386963 290C0.0386963 236.64 43.374 193.333 96.7693 193.333H193.5V386.667H96.7693C43.374 386.667 0.0386963 343.36 0.0386963 290Z" fill="#A259FF"/>
<path d="M0.0386963 96.6667C0.0386963 43.3067 43.374 0 96.7693 0H193.5V193.333H96.7693C43.374 193.333 0.0386963 150.027 0.0386963 96.6667Z" fill="#F24E1E"/>
<path d="M193.5 0H290.231C343.626 0 386.961 43.3067 386.961 96.6667C386.961 150.027 343.626 193.333 290.231 193.333H193.5V0Z" fill="#FF7262"/>
<path d="M386.961 290C386.961 343.36 343.626 386.667 290.231 386.667C236.835 386.667 193.5 343.36 193.5 290C193.5 236.64 236.835 193.333 290.231 193.333C343.626 193.333 386.961 236.64 386.961 290Z" fill="#1ABCFE"/>
</g>
<defs>
<clipPath id="clip0_51_2">
<rect width="387" height="580" fill="white"/>
</clipPath>
</defs>
</svg>
