<svg width="56" height="55" viewBox="0 0 56 55" fill="none" xmlns="http://www.w3.org/2000/svg">
<path d="M27.9965 0C12.537 0 0 12.586 0 28.112C0 40.53 8.022 51.065 19.152 54.7855C20.552 55.0445 21.063 54.1765 21.063 53.431C21.063 52.7625 21.0385 50.995 21.0245 48.65C13.237 50.3475 11.592 44.8805 11.592 44.8805C10.3215 41.6325 8.484 40.768 8.484 40.768C5.9395 39.025 8.673 39.06 8.673 39.06C11.4835 39.2595 12.9605 41.958 12.9605 41.958C15.4595 46.2525 19.516 45.0135 21.112 44.2925C21.364 42.476 22.0885 41.237 22.89 40.5335C16.674 39.823 10.136 37.4115 10.136 26.642C10.136 23.5725 11.228 21.063 13.02 19.096C12.7295 18.3855 11.7705 15.526 13.293 11.6585C13.293 11.6585 15.645 10.9025 20.993 14.539C23.226 13.916 25.62 13.6045 28.0035 13.594C30.38 13.608 32.7775 13.916 35.014 14.5425C40.3585 10.906 42.707 11.662 42.707 11.662C44.233 15.533 43.274 18.389 42.987 19.0995C44.7825 21.0665 45.864 23.576 45.864 26.6455C45.864 37.443 39.319 39.8195 33.082 40.516C34.0865 41.384 34.9825 43.099 34.9825 45.7205C34.9825 49.4795 34.9475 52.5105 34.9475 53.431C34.9475 54.1835 35.4515 55.0585 36.8725 54.782C47.985 51.058 56 40.5265 56 28.112C56 12.586 43.463 0 27.9965 0Z" fill="white"/>
</svg>
