<?xml version="1.0" standalone="no"?>
<!DOCTYPE svg PUBLIC "-//W3C//DTD SVG 20010904//EN"
 "http://www.w3.org/TR/2001/REC-SVG-20010904/DTD/svg10.dtd">
<svg version="1.0" xmlns="http://www.w3.org/2000/svg"
 width="900.000000pt" height="600.000000pt" viewBox="0 0 900.000000 600.000000"
 preserveAspectRatio="xMidYMid meet">

<g transform="translate(0.000000,600.000000) scale(0.100000,-0.100000)"
fill="#000000" stroke="none">
<path d="M450 3640 l0 -300 150 0 150 0 0 -150 0 -150 150 0 150 0 0 -150 0
-150 150 0 150 0 0 -150 0 -150 1050 0 1050 0 0 150 0 150 150 0 150 0 0 150
0 150 150 0 150 0 0 300 0 300 300 0 300 0 0 -300 0 -300 150 0 150 0 0 -150
0 -150 150 0 150 0 0 -150 0 -150 1050 0 1050 0 0 150 0 150 150 0 150 0 0
150 0 150 150 0 150 0 0 150 0 150 150 0 150 0 0 300 0 300 -3900 0 -3900 0 0
-300z m900 -150 l0 -150 150 0 150 0 0 150 0 150 150 0 150 0 0 -150 0 -150
150 0 150 0 0 -150 0 -150 150 0 150 0 0 -150 0 -150 -150 0 -150 0 0 150 0
150 -150 0 -150 0 0 -150 0 -150 -150 0 -150 0 0 150 0 150 -150 0 -150 0 0
150 0 150 -150 0 -150 0 0 150 0 150 150 0 150 0 0 -150z m4240 0 l0 -150 150
0 150 0 0 150 0 150 150 0 150 0 0 -150 0 -150 150 0 150 0 0 -150 0 -150 150
0 150 0 0 -150 0 -150 -150 0 -150 0 0 150 0 150 -150 0 -150 0 0 -150 0 -150
-150 0 -150 0 0 150 0 150 -150 0 -150 0 0 150 0 150 -150 0 -150 0 0 150 0
150 150 0 150 0 0 -150z"/>
<path d="M1650 3190 l0 -150 150 0 150 0 0 150 0 150 -150 0 -150 0 0 -150z"/>
<path d="M5890 3190 l0 -150 150 0 150 0 0 150 0 150 -150 0 -150 0 0 -150z"/>
</g>
</svg>
