<svg width="58" height="58" viewBox="0 0 58 58" fill="none" xmlns="http://www.w3.org/2000/svg">
<path d="M43 1H15C7.26801 1 1 7.26801 1 15V43C1 50.732 7.26801 57 15 57H43C50.732 57 57 50.732 57 43V15C57 7.26801 50.732 1 43 1Z" stroke="white" stroke-width="2" stroke-linecap="round" stroke-linejoin="round"/>
<path d="M40.2003 27.236C40.5458 29.5663 40.1478 31.9462 39.0628 34.0372C37.9778 36.1283 36.2611 37.8239 34.1568 38.8831C32.0526 39.9422 29.6679 40.3109 27.3421 39.9366C25.0162 39.5623 22.8676 38.4642 21.2018 36.7984C19.536 35.1327 18.4379 32.984 18.0636 30.6582C17.6894 28.3323 18.058 25.9477 19.1172 23.8434C20.1763 21.7392 21.872 20.0225 23.963 18.9375C26.054 17.8525 28.434 17.4544 30.7643 17.8C33.1412 18.1525 35.3418 19.2601 37.041 20.9592C38.7402 22.6584 39.8478 24.859 40.2003 27.236Z" stroke="white" stroke-width="2" stroke-linecap="round" stroke-linejoin="round"/>
</svg>
