<svg width="126" height="126" viewBox="0 0 126 126" fill="none" xmlns="http://www.w3.org/2000/svg">
<path d="M0.582764 0.516113H125.767V125.701H0.582764V0.516113Z" fill="#F0DB4F"/>
<path d="M115.522 95.8443C114.605 90.1333 110.881 85.3363 99.8499 80.8633C96.0179 79.1023 91.7459 77.8413 90.4729 74.9373C90.0209 73.2473 89.9609 72.2953 90.2469 71.2723C91.0679 67.9523 95.0309 66.9173 98.1719 67.8693C100.195 68.5473 102.11 70.1063 103.265 72.5933C108.667 69.0953 108.656 69.1183 112.428 66.7143C111.047 64.5733 110.31 63.5853 109.406 62.6693C106.157 59.0403 101.73 57.1713 94.6499 57.3143L90.9619 57.7913C87.4279 58.6843 84.0599 60.5393 82.0849 63.0263C76.1589 69.7503 77.8489 81.5183 85.0599 86.3613C92.1639 91.6933 102.6 92.9063 103.933 97.8923C105.23 103.996 99.4469 105.972 93.6989 105.27C89.4629 104.389 87.1069 102.236 84.5599 98.3213C79.8719 101.034 79.8719 101.034 75.0519 103.806C76.1949 106.305 77.3959 107.436 79.3119 109.601C88.3799 118.799 111.072 118.347 115.142 104.425C115.307 103.947 116.403 100.759 115.522 95.8443ZM68.6369 58.0513H56.9279L56.8799 88.3233C56.8799 94.7613 57.2129 100.663 56.1659 102.472C54.4529 106.03 50.0139 105.589 47.9909 104.899C45.9319 103.887 44.8849 102.448 43.6719 100.414C43.3389 99.8303 43.0889 99.3783 43.0049 99.3433L33.4849 105.173C35.0679 108.422 37.3999 111.242 40.3869 113.074C44.8489 115.752 50.8459 116.573 57.1179 115.133C61.1999 113.944 64.7219 111.481 66.5659 107.732C69.2319 102.817 68.6599 96.8683 68.6359 90.2883C68.6959 79.5533 68.6369 68.8203 68.6369 58.0513Z" fill="#323330"/>
</svg>
