<svg width="2490" height="2490" viewBox="0 0 2490 2490" fill="none" xmlns="http://www.w3.org/2000/svg">
<path d="M0 177.996C0 80.7305 82.6758 0 184.805 0H2305.2C2407.32 0 2490 79.7578 2490 177.996V2312C2490 2409.27 2407.32 2490 2305.2 2490H184.805C82.6758 2490 0 2410.24 0 2312V177.996Z" fill="#006699"/>
<path d="M756.727 2083.43V962.93H384.199V2083.43H756.727ZM570.949 809.25C700.313 809.25 781.043 723.656 781.043 615.691C779.098 505.781 700.312 422.133 573.867 422.133C446.449 422.133 362.801 505.781 362.801 616.664C362.801 723.656 443.531 810.223 569.004 810.223H570.949V809.25ZM962.93 2083.43H1335.46V1458.98C1335.46 1424.94 1338.38 1390.9 1348.1 1367.55C1374.36 1301.41 1435.64 1231.38 1538.74 1231.38C1673.94 1231.38 1727.44 1334.48 1727.44 1484.27V2084.4H2100.94V1442.45C2100.94 1098.13 1917.11 936.668 1672.97 936.668C1604.55 934.026 1536.73 950.34 1477 983.81C1417.27 1017.28 1367.95 1066.6 1334.48 1126.34H1336.43V962.93H962.93C967.793 1067.98 962.93 2083.43 962.93 2083.43Z" fill="white"/>
</svg>
