<svg width="60" height="66" viewBox="0 0 80 88" fill="none" xmlns="http://www.w3.org/2000/svg">
<path d="M20.628 35L15.192 27.26C14.52 27.308 13.992 27.332 13.608 27.332H7.38V35H3.78V9.8H13.608C16.872 9.8 19.44 10.58 21.312 12.14C23.184 13.7 24.12 15.848 24.12 18.584C24.12 20.528 23.64 22.184 22.68 23.552C21.72 24.92 20.352 25.916 18.576 26.54L24.552 35H20.628ZM13.5 24.272C15.78 24.272 17.52 23.78 18.72 22.796C19.92 21.812 20.52 20.408 20.52 18.584C20.52 16.76 19.92 15.368 18.72 14.408C17.52 13.424 15.78 12.932 13.5 12.932H7.38V24.272H13.5ZM36.2045 15.74C38.8445 15.74 40.8605 16.388 42.2525 17.684C43.6685 18.98 44.3765 20.912 44.3765 23.48V35H41.1005V32.48C40.5245 33.368 39.6965 34.052 38.6165 34.532C37.5605 34.988 36.3005 35.216 34.8365 35.216C32.7005 35.216 30.9845 34.7 29.6885 33.668C28.4165 32.636 27.7805 31.28 27.7805 29.6C27.7805 27.92 28.3925 26.576 29.6165 25.568C30.8405 24.536 32.7845 24.02 35.4485 24.02H40.9205V23.336C40.9205 21.848 40.4885 20.708 39.6245 19.916C38.7605 19.124 37.4885 18.728 35.8085 18.728C34.6805 18.728 33.5765 18.92 32.4965 19.304C31.4165 19.664 30.5045 20.156 29.7605 20.78L28.3205 18.188C29.3045 17.396 30.4805 16.796 31.8485 16.388C33.2165 15.956 34.6685 15.74 36.2045 15.74ZM35.4125 32.552C36.7325 32.552 37.8725 32.264 38.8325 31.688C39.7925 31.088 40.4885 30.248 40.9205 29.168V26.504H35.5925C32.6645 26.504 31.2005 27.488 31.2005 29.456C31.2005 30.416 31.5725 31.172 32.3165 31.724C33.0605 32.276 34.0925 32.552 35.4125 32.552ZM79.2925 15.92L72.1645 35H68.8525L63.3445 20.528L57.7645 35H54.4525L47.3605 15.92H50.6365L56.1805 31.112L61.9405 15.92H64.8565L70.5085 31.184L76.1965 15.92H79.2925Z" fill="white"/>
<path d="M10.224 59.74C12.864 59.74 14.88 60.388 16.272 61.684C17.688 62.98 18.396 64.912 18.396 67.48V79H15.12V76.48C14.544 77.368 13.716 78.052 12.636 78.532C11.58 78.988 10.32 79.216 8.856 79.216C6.72 79.216 5.004 78.7 3.708 77.668C2.436 76.636 1.8 75.28 1.8 73.6C1.8 71.92 2.412 70.576 3.636 69.568C4.86 68.536 6.804 68.02 9.468 68.02H14.94V67.336C14.94 65.848 14.508 64.708 13.644 63.916C12.78 63.124 11.508 62.728 9.828 62.728C8.7 62.728 7.596 62.92 6.516 63.304C5.436 63.664 4.524 64.156 3.78 64.78L2.34 62.188C3.324 61.396 4.5 60.796 5.868 60.388C7.236 59.956 8.688 59.74 10.224 59.74ZM9.432 76.552C10.752 76.552 11.892 76.264 12.852 75.688C13.812 75.088 14.508 74.248 14.94 73.168V70.504H9.612C6.684 70.504 5.22 71.488 5.22 73.456C5.22 74.416 5.592 75.172 6.336 75.724C7.08 76.276 8.112 76.552 9.432 76.552ZM34.9796 59.74C37.4036 59.74 39.3236 60.448 40.7396 61.864C42.1796 63.256 42.8996 65.308 42.8996 68.02V79H39.4436V68.416C39.4436 66.568 38.9996 65.176 38.1116 64.24C37.2236 63.304 35.9516 62.836 34.2956 62.836C32.4236 62.836 30.9476 63.388 29.8676 64.492C28.7876 65.572 28.2476 67.132 28.2476 69.172V79H24.7916V59.92H28.1036V62.8C28.7996 61.816 29.7356 61.06 30.9116 60.532C32.1116 60.004 33.4676 59.74 34.9796 59.74ZM67.401 52.288V79H64.089V75.976C63.321 77.032 62.349 77.836 61.173 78.388C59.997 78.94 58.701 79.216 57.285 79.216C55.437 79.216 53.781 78.808 52.317 77.992C50.853 77.176 49.701 76.036 48.861 74.572C48.045 73.084 47.637 71.38 47.637 69.46C47.637 67.54 48.045 65.848 48.861 64.384C49.701 62.92 50.853 61.78 52.317 60.964C53.781 60.148 55.437 59.74 57.285 59.74C58.653 59.74 59.913 60.004 61.065 60.532C62.217 61.036 63.177 61.792 63.945 62.8V52.288H67.401ZM57.573 76.192C58.773 76.192 59.865 75.916 60.849 75.364C61.833 74.788 62.601 73.996 63.153 72.988C63.705 71.956 63.981 70.78 63.981 69.46C63.981 68.14 63.705 66.976 63.153 65.968C62.601 64.936 61.833 64.144 60.849 63.592C59.865 63.04 58.773 62.764 57.573 62.764C56.349 62.764 55.245 63.04 54.261 63.592C53.301 64.144 52.533 64.936 51.957 65.968C51.405 66.976 51.129 68.14 51.129 69.46C51.129 70.78 51.405 71.956 51.957 72.988C52.533 73.996 53.301 74.788 54.261 75.364C55.245 75.916 56.349 76.192 57.573 76.192ZM74.7681 79.216C74.0961 79.216 73.5201 78.988 73.0401 78.532C72.5601 78.052 72.3201 77.452 72.3201 76.732C72.3201 76.036 72.5601 75.46 73.0401 75.004C73.5201 74.524 74.0961 74.284 74.7681 74.284C75.4401 74.284 76.0041 74.512 76.4601 74.968C76.9161 75.424 77.1441 76.012 77.1441 76.732C77.1441 77.452 76.9041 78.052 76.4241 78.532C75.9681 78.988 75.4161 79.216 74.7681 79.216Z" fill="white" fill-opacity="0.5"/>
</svg>
