<svg width="75" height="65" viewBox="0 0 75 65" fill="none" xmlns="http://www.w3.org/2000/svg">
<path d="M0 40V65H25H50V40V15H25H0V40Z" fill="#77FFEB"/>
<path d="M25.142 0.450395C25.0158 0.745131 24.9737 11.9872 25.0158 25.4188L25.142 49.8398L28.9287 49.9661C31.0324 50.0503 42.2241 49.9661 53.8787 49.8398L75 49.5451L74.9158 24.8293L74.7896 0.155658L50.05 0.0293428C30.4854 -0.0548676 25.2682 0.0293428 25.142 0.450395ZM69.0255 24.8714L69.1096 43.7345H50.2603H31.369L31.0745 25.2082C30.9062 15.0188 30.9062 6.47144 31.0324 6.26091C31.2007 5.96618 38.0588 5.88196 50.092 5.92407L68.8992 6.05039L69.0255 24.8714Z" fill="#9A77FF"/>
</svg>
