<svg width="57" height="47" viewBox="0 0 57 47" fill="none" xmlns="http://www.w3.org/2000/svg">
<path d="M57 5.56359C54.9046 6.50867 52.6495 7.14615 50.2833 7.43143C52.6992 5.96393 54.5517 3.63941 55.4253 0.866413C53.1655 2.22708 50.664 3.21442 47.9993 3.74741C45.8668 1.44167 42.8272 0 39.4637 0C33.0061 0 27.7705 5.31236 27.7705 11.8656C27.7705 12.7943 27.8735 13.6994 28.0736 14.5694C18.3544 14.0739 9.73662 9.35093 3.9687 2.1719C2.96206 3.92351 2.38585 5.96158 2.38585 8.13818C2.38585 12.2542 4.45003 15.8866 7.58797 18.0139C5.67188 17.9517 3.86803 17.4175 2.29097 16.5288C2.28981 16.5781 2.28981 16.6286 2.28981 16.679C2.28981 22.427 6.32099 27.2216 11.6712 28.3134C10.69 28.5834 9.65678 28.729 8.58998 28.729C7.83558 28.729 7.10316 28.655 6.38926 28.5153C7.87839 33.229 12.1965 36.6606 17.313 36.7557C13.3108 39.9384 8.26947 41.8356 2.78966 41.8356C1.84666 41.8356 0.915231 41.7792 0 41.6689C5.17666 45.0371 11.3229 47 17.9263 47C39.4371 47 51.1985 28.9204 51.1985 13.2404C51.1985 12.7262 51.1881 12.2131 51.1661 11.7036C53.4502 10.0342 55.4333 7.9433 57 5.56359Z" fill="white"/>
</svg>
