<svg width="239" height="239" viewBox="0 0 239 239" fill="none" xmlns="http://www.w3.org/2000/svg">
<path d="M225.09 0.513465C224.109 0.793544 221.729 2.70741 218.788 5.50819C216.174 8.02889 211.786 11.6699 209.078 13.6771C203.057 18.0183 202.45 19.0453 204.504 21.6594C206.091 23.6666 207.725 23.2932 212.439 19.8389C214.727 18.1584 216.781 16.8047 216.967 16.8047C217.154 16.8047 218.228 17.7383 219.348 18.8586L221.355 20.8658L210.245 35.99C185.318 69.9728 172.855 85.7973 157.964 102.229C151.476 109.417 135.745 125.335 133.131 127.342L131.59 128.509L120.34 117.306L109.091 106.056L115.439 99.3344C131.917 81.8295 156.144 61.2904 187.746 38.0439C192.274 34.683 196.195 31.5088 196.475 30.9486C197.082 29.6416 196.335 27.2609 195.121 26.6074C193.114 25.5338 191.947 26.1873 178.503 36.0834C156.377 52.3279 150.169 57.1826 137.799 67.9656C129.35 75.2943 108.53 96.0668 101.108 104.562C89.2517 118.1 76.4147 134.811 67.8257 147.975L63.2511 154.977L61.3839 154.65C56.8093 153.903 53.3083 154.883 50.2274 157.684C48.4069 159.411 46.6798 163.192 46.6798 165.62V167.627L44.4858 167.3C28.1946 164.686 13.2105 175.189 10.4097 191.153C9.56944 195.961 9.98955 201.003 11.7167 206.324C12.4636 208.705 12.6503 210.245 12.5103 213.326C12.2302 219.628 9.6628 224.296 4.15459 228.544C1.07373 230.924 0.513577 232.185 1.58721 234.239C2.24073 235.452 2.94092 235.872 6.02178 236.853C20.5858 241.474 39.8646 238.346 51.6745 229.477C56.996 225.463 64.8849 216.08 64.8849 213.7C64.8849 213.233 64.3714 212.299 63.7179 211.692C62.2708 210.199 59.9835 210.152 58.8165 211.552C58.3497 212.159 56.5759 214.306 54.9421 216.36C47.7067 225.463 39.1644 229.991 26.3741 231.578C22.4063 232.091 13.5839 231.905 12.6036 231.298C12.3235 231.158 12.9771 229.944 13.9573 228.59C18.2052 222.942 19.8856 217.481 19.4189 210.759C19.2788 208.425 18.7653 205.204 18.2519 203.523C15.5444 194.934 17.2716 186.859 23.0132 180.744C27.4011 176.122 32.3491 174.022 38.9776 174.022C44.1591 174.022 48.1735 175.189 52.2347 177.896C58.9565 182.378 62.971 189.613 63.0177 197.268C63.0177 199.602 63.2044 200.256 64.0913 201.096C65.5851 202.496 67.6856 202.45 69.086 200.956C70.113 199.882 70.1597 199.556 69.8796 195.354L69.6462 190.92H71.9335C78.0019 190.92 83.23 185.785 83.2767 179.717C83.3233 178.316 83.1833 176.589 82.9966 175.936C82.6698 174.815 83.0433 174.442 90.6987 169.354C129.723 143.167 164.499 109.791 193.581 70.4863C196.148 67.032 205.017 54.942 213.326 43.6455C223.689 29.5482 229.758 21.706 232.698 18.6252C236.573 14.6574 237.086 13.9105 237.6 11.6232C238.393 8.02889 237.646 5.46151 234.986 2.94081C232.185 0.233387 228.917 -0.560167 225.09 0.513465ZM230.411 8.16893C231.391 9.66268 231.018 10.5963 228.264 13.3037L225.93 15.591L224.296 14.0039C223.409 13.117 222.662 12.1834 222.662 11.8566C222.662 11.5766 223.689 10.3629 224.996 9.14921C227.657 6.67518 229.244 6.39511 230.411 8.16893ZM125.942 133.551C125.568 134.391 111.985 145.407 102.835 152.222C95.5067 157.684 78.9354 168.98 78.2353 168.98C77.9552 168.98 75.6212 166.88 73.1005 164.359L68.4792 159.691L71.42 155.117C77.9552 144.847 89.205 129.723 99.1478 117.633L104.236 111.518L115.159 122.394C121.134 128.369 125.989 133.411 125.942 133.551ZM68.3858 169.447L76.3214 177.383V179.53C76.3214 181.304 76.088 181.864 75.0144 182.798C73.5206 184.058 71.5134 184.245 69.6462 183.264C68.946 182.891 65.0716 179.25 61.0571 175.189C53.355 167.393 53.0749 166.973 54.1485 164.126C54.3819 163.472 55.2688 162.492 56.1091 161.979C58.8632 160.251 59.7034 160.765 68.3858 169.447Z" fill="white"/>
</svg>
