<svg width="512" height="512" viewBox="0 0 512 512" fill="none" xmlns="http://www.w3.org/2000/svg">
<path d="M135 12C126.9 13.1 120.3 18.1 116.9 25.5C115.3 29 115 32.4 115 54.7V79.8L97.8 85.5C88.3 88.7 78.7 92.3 76.4 93.6C71.2 96.6 65.3 103 62.6 108.9L60.5 113.5L60.2 247.7L60 382H56.7C51.4 382 42.1 384.8 34 388.7C23.4 393.8 11.7 405.6 6.6 416.2C0.9 428.1 0 434.1 0 461.5C0 482.8 0.3 486 1.9 489.6C4.2 494.7 9.1 498.6 15 499.9C21.3 501.4 490.7 501.4 497 499.9C502.9 498.6 507.8 494.7 510.1 489.6C511.8 485.9 512 482.6 512 455.5C512 422.8 511.6 419.2 506.2 408.2C502.9 401.3 493.4 391.5 486.4 387.8C479.3 384 470.9 382 461.8 382H454V318.7C454 250.1 454 249.8 448.5 242.7C447.1 240.7 443.5 238 440.7 236.5L435.6 234H367.3H299V140.3V46.5L307.8 55.1C312.6 59.8 325.7 72.6 337 83.4C348.3 94.3 358.3 104.6 359.2 106.3C360.8 109.2 360.9 114.3 361 158.8V208.1L363.5 210.5C366.6 213.7 370.9 213.8 373.9 210.7L376.1 208.3L375.8 156.9L375.5 105.5L372.8 100C370.5 95.3 363.9 88.4 333.4 59C313.3 39.5 295.5 22.9 294 22.1C291.3 20.8 287.5 21.9 227.1 42.2L163 63.6V48.5C163 38.1 162.5 31.8 161.5 28.4C158.1 16.8 147.4 10.2 135 12ZM142.5 27.6C144.6 28.6 146.3 30.3 146.9 32.2C147.5 33.9 148 42.7 148 52.1V68.8L139 71.8L130 74.9V53.6C130 33.7 130.1 32.1 132 29.7C133.1 28.3 135 26.9 136.3 26.7C137.5 26.5 138.7 26.2 138.8 26.1C139 26.1 140.7 26.7 142.5 27.6ZM284 59.4V79.8L241.8 93.9C149.3 124.8 117.6 135.8 116.3 137.6C113 142.2 116.3 149 121.9 149C123.5 149 160.3 137.1 203.7 122.5C247 107.9 282.8 96 283.3 96C283.7 96 284 104.5 284 114.9V133.8L235.8 149.9C145.2 180.1 117.7 189.7 116.3 191.6C113 196.2 116.3 203 121.9 203C123.5 203 160.3 191.1 203.8 176.5C247.2 161.9 283.1 150 283.4 150C283.7 150 284 158.5 284 168.9V187.8L231.3 205.4C141.6 235.3 117.7 243.7 116.3 245.6C113 250.2 116.3 257 121.9 257C123.5 257 160.3 245.1 203.8 230.5C247.2 215.9 283 204 283.3 204C283.7 204 284 212.5 284 222.8V241.7L201.3 269.4C143.8 288.7 118 297.8 116.8 299.2C112.9 303.6 116.2 311 122 311C123.5 311 160.3 299.1 203.7 284.5C247.1 269.9 282.9 258 283.3 258C283.7 258 284 266.3 284 276.5C284 293.4 283.8 295 282.1 295.9C281.1 296.5 258.1 304.4 230.9 313.5C203.8 322.6 180.6 330.7 179.4 331.5C176.4 333.4 175.5 337.6 177.5 340.7C181.1 346.2 179.9 346.5 233 328.6C260.1 319.5 282.6 312 283.1 312C283.6 312 283.9 348.6 283.8 398.7L283.5 485.5L251.3 485.8L219 486V446.3C219 423.3 218.6 405 218 403C216.1 396.1 206.6 390.1 200.1 391.7C189.6 394.1 126.6 412.1 124.4 413.3C122.8 414.1 120.8 415.6 119.9 416.6C115.6 421.5 115.5 422.5 115 454.5L114.5 485.5H95H75.5L75.2 302L75 118.4L77.2 114C78.5 111.6 80.7 108.7 82.1 107.7C83.6 106.6 121.6 93.4 166.6 78.3C211.7 63.2 256.2 48.2 265.5 45C274.9 41.8 282.8 39.1 283.3 39.1C283.7 39 284 48.2 284 59.4ZM436.4 252.1L439 255.2V320.3V385.5L433.9 388.5C418.5 397.5 409.1 414.5 409 433.2V439H354H299V344V249H366.4H433.8L436.4 252.1ZM60 418V439H37.5H15L15.6 436.2C18.1 425 22.8 416.3 30.1 409.6C38 402.3 48.6 397.4 57.3 397.1L60 397V418ZM477.8 400.3C489.7 406.5 496.1 416.7 496.8 430.7L497.3 439H460.5H423.7L424.3 431.1C424.9 421.6 428.3 413.4 433.8 407.7C441.9 399.3 448.6 396.9 462.5 397.3C471.1 397.6 473.2 398 477.8 400.3ZM203.8 446.6L203.5 485.5H189H174.5L174.2 449.9L174 414.4L188.2 410.3C196.1 408.1 202.8 406.6 203.3 406.9C203.7 407.3 203.9 425.1 203.8 446.6ZM159 452.5V486H144.5H130L130.2 456.3L130.5 426.5L143.5 422.8C150.7 420.8 157.1 419.1 157.8 419.1C158.7 419 159 426.3 159 452.5ZM60 470V486H40.1C29.1 486 19 485.6 17.6 485L15 484V469V454H37.5H60V470ZM409 470V486H354H299V470V454H354H409V470ZM497 468.2C497 476.1 496.5 483.2 496 484C495.2 485.3 490.1 485.5 459.8 485.5H424.5L424.2 469.7L423.9 454H460.5H497V468.2Z" fill="white"/>
<path d="M133.1 346.4C123.8 349.5 117.2 352.3 116.4 353.5C113.1 358 116.4 365 121.8 365C125.7 365 154.6 355.2 156.1 353.3C156.8 352.5 157.4 350.2 157.4 348.3C157.4 344.3 154.3 340.9 150.6 341.1C149.5 341.1 141.6 343.5 133.1 346.4Z" fill="white"/>
<path d="M324.9 269.3C319.7 272.8 319 275.1 319 288.8C319 302.4 319.9 305.3 325 308.4C327.5 309.8 332.6 310 368.3 310H408.7L412.1 307.7C417 304.4 418.2 299.8 417.8 287C417.3 274.9 415.9 271.1 410.6 268.6C407.6 267.2 402.2 267 367.7 267C328.3 267 328.3 267 324.9 269.3ZM403 288.5V295H368.5H334V288.5V282H368.5H403V288.5Z" fill="white"/>
<path d="M324.9 326.3C323.1 327.5 321 329.7 320.3 331C318.4 334.8 318.6 357.3 320.5 361C323.6 367 323.9 367 368.9 367H409.8L412.9 364.4C417 360.9 418.3 355.6 417.8 343.5C417.3 331.9 415.8 328.1 410.6 325.6C407.6 324.2 402.2 324 367.7 324C328.3 324 328.3 324 324.9 326.3ZM403 345.5V352H368.5H334V345.5V339H368.5H403V345.5Z" fill="white"/>
<path d="M324.9 383.7C319.9 386.8 319 389.7 319 403.2C319 417 319.7 419.2 325 422.8C328.4 425 329.1 425.1 344.8 424.8L361.2 424.5L364.6 420.8L368 417V404C368 382.9 367 382 343.3 382C330.5 382 327 382.4 324.9 383.7ZM353 403.5V410H343.5H334V403.5V397H343.5H353V403.5Z" fill="white"/>
</svg>
