<svg width="1440" height="820" viewBox="0 0 1440 820" fill="none" xmlns="http://www.w3.org/2000/svg">
<path d="M658.096 25.2333C657.128 25.4407 653.603 26.6157 650.216 27.9981C646.898 29.3114 640.677 30.9702 636.392 31.7305C632.176 32.4909 626.715 33.6659 624.227 34.4262C621.739 35.1174 618.836 35.8777 617.799 36.1542C616.693 36.3616 615.933 36.9145 616.14 37.3984C616.555 38.6425 619.665 38.7807 623.743 37.6748C629.826 35.9468 631.554 35.6704 630.793 36.3616C630.171 37.0528 627.13 37.9513 619.389 40.0249C617.661 40.4396 615.864 40.9235 615.449 41.0617C614.965 41.1999 614.55 42.0294 614.55 42.9279C614.55 43.8265 614.205 44.8633 613.79 45.278C613.099 45.9692 608.537 66.2212 607.846 71.8199C607.569 74.0317 608.122 75.0685 614.274 83.2246C620.84 91.9337 627.268 103.822 633.558 118.752C634.595 121.171 635.908 123.521 636.461 124.005C637.705 124.904 638.673 124.42 627.337 128.567C623.19 130.088 613.997 134.097 606.947 137.484C599.897 140.87 593.607 143.635 592.985 143.635C592.225 143.635 591.188 142.46 590.289 140.663C589.46 139.073 588.147 136.792 587.248 135.686C586.419 134.511 584.829 131.885 583.792 129.811C581.718 125.664 578.539 121.102 574.115 115.642C568.931 109.352 562.987 100.574 557.527 91.1043C549.44 77.073 539.21 60.6225 537.205 58.4798C536.307 57.443 534.994 56.4062 534.302 56.1989C533.542 55.9224 533.196 55.3694 533.473 54.6782C534.579 51.8443 530.086 52.4664 522.967 56.0606C519.373 57.8577 515.502 59.2401 499.812 64.355C498.084 64.9079 495.457 65.7374 493.937 66.1521C490.342 67.1198 486.333 70.6449 487.094 72.3037C487.785 73.8935 487.785 73.8244 487.923 96.8412C488.061 115.434 488.131 116.748 489.306 116.54C490.204 116.402 490.55 115.503 490.688 113.015C490.826 111.218 491.103 109.767 491.448 109.767C493.038 109.767 501.056 119.927 504.028 125.802C505.134 128.014 506.655 130.226 507.415 130.71C508.244 131.125 511.078 134.788 513.912 138.797C516.677 142.806 522.068 150.547 525.87 156.077C532.229 165.2 549.993 193.609 558.218 207.778C560.084 210.958 562.158 213.861 562.849 214.206C563.816 214.759 564.093 215.727 564.093 218.906C564.093 222.915 564.093 222.984 566.236 223.261C567.618 223.468 570.867 222.639 576.051 220.634C580.336 219.045 588.285 216.418 593.814 214.828C605.426 211.441 609.366 209.921 627.337 202.041C640.47 196.235 644.064 194.991 664.316 188.908C672.956 186.351 682.495 183.241 688.232 181.167C689.476 180.683 692.932 184.001 701.295 193.678C708.968 202.594 714.497 208.124 732.676 225.196C748.089 239.573 759.287 249.319 760.6 249.388C761.222 249.388 761.775 249.665 761.775 250.079C761.775 251.393 764.816 250.771 768.618 248.628C770.761 247.384 775.461 244.066 779.124 241.163C782.718 238.26 788.455 233.974 791.773 231.555C796.058 228.445 797.717 226.855 797.441 226.095C797.233 225.542 796.957 220.565 796.819 215.036C796.68 206.257 796.542 204.944 795.436 204.115C794.676 203.562 793.708 203.354 793.224 203.493C791.842 204.046 790.46 201.212 791.496 199.968C792.118 199.207 791.98 198.447 790.874 196.581C790.045 195.337 788.87 193.816 788.248 193.332C787.626 192.779 785.414 190.014 783.271 187.18C781.198 184.347 775.253 177.089 770.138 171.076C759.218 158.289 755.831 153.865 747.605 141.423C736.201 124.213 733.159 119.789 721.409 103.546C707.24 83.9158 705.995 82.3261 697.148 73.1332C684.154 59.5166 677.933 50.3237 670.537 33.8041L666.666 25.0951L663.21 25.0259C661.344 24.9568 659.063 25.0259 658.096 25.2333ZM615.034 74.5847C616.486 76.9348 619.458 81.6349 621.6 85.0217C623.812 88.4086 626.577 93.1087 627.752 95.4588C628.927 97.8089 631.899 102.924 634.388 106.864C641.576 118.337 642.82 122.485 639.641 123.66C638.466 124.074 638.189 124.005 638.466 123.245C639.157 121.517 627.268 95.9426 622.637 89.0307C621.531 87.3027 618.283 83.0864 615.518 79.6304C611.647 74.8612 610.541 72.9949 610.887 71.889C611.509 69.539 612.269 70.0228 615.034 74.5847ZM695.213 176.605C700.811 182.895 728.114 211.649 733.021 216.418C737.238 220.496 755.416 235.979 758.665 238.26C760.738 239.711 761.084 240.333 761.084 242.614C761.084 244.066 760.876 245.241 760.6 245.241C759.909 245.172 752.72 238.813 736.546 223.883C720.027 208.677 711.802 200.382 703.023 190.429C699.014 185.867 694.038 180.891 691.964 179.439L688.163 176.743L685.398 178.126C681.527 179.923 676.551 181.582 658.787 186.904C643.58 191.466 636.738 193.954 627.683 198.101C615.656 203.562 606.187 207.433 599.137 209.713C594.92 211.096 588.492 213.1 584.898 214.275C579.714 215.934 572.94 218.768 567.411 221.602C567.065 221.74 566.858 220.081 566.858 218.008C566.858 215.45 567.134 213.999 567.756 213.861C580.82 210.128 587.455 207.778 599.897 202.456C605.357 200.106 609.919 198.24 610.127 198.24C610.265 198.24 617.661 195.129 626.577 191.328C635.424 187.526 643.028 184.416 643.442 184.416C643.926 184.416 648.419 182.895 653.395 181.029C658.441 179.163 666.044 176.813 670.192 175.845C674.408 174.877 680.283 173.426 683.324 172.735C686.365 171.974 689.199 171.421 689.683 171.352C690.098 171.283 692.586 173.702 695.213 176.605ZM790.114 228.238C790.114 228.376 787.211 230.657 783.755 233.214C780.23 235.841 776.221 238.951 774.908 240.126C771.59 243.098 763.849 248.006 762.535 248.006C761.568 247.937 761.637 247.867 762.674 247.245C763.434 246.762 763.849 245.725 763.849 243.928C763.849 240.748 764.056 240.61 770.761 237.776C773.594 236.601 779.055 233.974 782.856 231.832C790.529 227.615 790.114 227.892 790.114 228.238Z" fill="white"/>
<path d="M995.33 50.3237C990.215 51.2222 986.068 53.3649 983.649 56.4753C981.714 58.8254 980.953 59.3092 978.88 59.3092C971.138 59.3784 964.157 67.5345 966.231 74.2391C966.922 76.4509 966.853 76.7274 965.401 77.2803C964.503 77.6259 962.015 79.3539 959.803 81.151C956.485 83.8467 955.725 84.1923 955.172 83.2937C954.342 81.704 947.914 79.4921 942.799 79.0083C931.326 77.9715 917.709 76.3818 911.557 75.4832C901.604 74.0317 892.342 74.1699 889.024 75.8288C885.015 77.9024 879.417 82.6025 878.242 84.9526C877.274 86.6806 877.274 87.2335 878.034 88.1321C878.864 89.1689 878.587 89.1689 875.131 88.7542C873.058 88.4777 870.293 88.1321 869.118 87.9247C866.56 87.4409 866.008 88.5468 868.219 89.7218C868.911 90.1366 872.712 90.8969 876.652 91.519C883.011 92.4866 890.338 93.9381 904.853 96.9794C912.041 98.5 923.584 100.574 938.03 102.855C945.426 104.03 951.647 105.205 951.854 105.412C952.061 105.619 949.711 105.619 946.67 105.343C927.939 103.891 924.206 103.477 921.096 102.578C915.774 100.988 889.992 95.7353 882.043 94.6293C879.555 94.2146 876.583 93.5925 875.477 93.1087C872.505 91.8646 852.322 92.2793 851.009 93.5234C849.834 94.6985 848.175 102.785 847.691 109.836C847.207 117.301 848.451 124.351 851.285 129.949C853.566 134.373 853.635 134.65 852.322 134.65C850.663 134.65 847.483 129.949 845.341 124.282C842.092 115.78 843.267 101.196 847.76 93.6617L849.903 90.0674L857.713 90.3439C864.349 90.5513 865.455 90.413 865.455 89.5145C865.455 88.2012 859.441 87.3027 854.741 87.7865C852.806 88.063 851.562 87.8556 851.423 87.3718C850.939 86.1276 846.861 90.413 844.926 94.1455C840.917 102.025 840.019 115.918 842.991 124.42C845.064 130.295 847.76 135.064 849.557 136.032C850.248 136.378 853.981 136.723 857.782 136.723C861.653 136.723 864.902 137 865.109 137.414C865.731 138.382 870.293 138.313 870.293 137.345C870.293 136.861 869.74 136.101 869.118 135.617C868.081 134.857 868.081 134.719 868.911 134.65C869.533 134.65 870.5 135.548 871.191 136.654C872.989 139.764 879.209 147.022 880.73 147.851C883.633 149.372 883.287 147.506 879.901 143.773C873.68 136.792 867.736 126.632 869.049 125.249C869.256 125.111 870.915 126.493 872.85 128.36C877.689 132.991 879.831 134.373 880.799 133.405C881.352 132.852 881.006 131.332 879.348 127.738C876.375 121.379 875.753 113.983 877.55 107.347C878.173 104.859 879.002 102.716 879.278 102.509C879.555 102.371 879.97 104.306 880.108 106.864C880.454 111.633 884.048 123.521 885.845 125.941C887.918 128.636 887.78 126.148 885.637 119.927C882.942 112.186 880.523 101.472 881.49 101.472C883.633 101.472 891.236 113.499 892.688 119.167C893.586 122.83 896.213 125.318 896.973 123.383C897.18 122.761 896.904 120.757 896.351 118.959C894.139 111.978 894.277 100.159 896.558 103.546C896.973 104.099 898.632 108.799 900.291 113.914C902.295 120.134 903.678 123.314 904.369 123.452C905.751 123.729 908.585 122.001 911.903 118.89L914.46 116.471L915.29 118.476C916.88 122.554 912.594 132.023 907.134 136.516C903.678 139.35 899.876 144.672 898.148 149.234C896.904 152.621 896.42 167.896 897.457 173.149C898.01 175.983 898.01 176.121 896.42 176.121C894.001 176.121 888.195 179.232 884.393 182.549L881.145 185.452L881.629 176.813C881.905 172.043 882.389 164.302 882.665 159.533C883.287 150.962 882.942 148.681 881.214 150.409C880.315 151.307 880.246 152.344 879.209 182.342C878.38 205.705 878.518 208.608 881.006 219.598C884.255 233.905 888.333 244.342 891.582 246.485C893.863 248.006 893.586 246.485 890.338 239.504C885.637 229.551 880.315 204.599 881.629 199.207C882.182 197.065 885.637 194.576 891.098 192.364C894.761 190.913 895.729 190.222 895.729 189.047C895.798 188.217 896.005 186.489 896.282 185.245C896.558 183.724 896.351 182.48 895.66 181.374C894.416 179.508 894.761 178.886 896.973 178.886C898.217 178.886 898.632 179.37 898.908 181.098C901.259 195.613 903.401 204.875 905.613 209.99C908.723 217.247 909.138 212.616 906.235 202.387C904.023 194.507 899.323 165.753 899.254 159.74C899.185 153.727 900.291 149.994 903.47 145.018C907.479 138.728 907.479 138.728 916.603 139.903C925.036 141.009 953.789 141.7 954.964 140.801C955.379 140.525 956.9 140.179 958.42 140.041C960.494 139.903 961.323 139.419 961.876 138.313C962.222 137.483 963.19 136.723 964.088 136.516C965.401 136.308 965.747 136.585 966.093 138.036C967.199 142.944 970.724 153.588 972.866 158.219C977.152 167.62 984.962 171.698 994.846 169.693C997.196 169.209 997.473 169.278 997.819 170.799C998.51 173.357 998.51 176.882 997.888 180.752C997.542 183.241 997.611 184.416 998.095 184.416C999.27 184.416 1000.17 182.066 1000.65 177.988C1001.14 173.633 999.201 165.753 996.851 162.919C995.261 160.915 994.155 161.606 995.261 163.956C996.021 165.615 995.952 165.684 992.289 166.099C990.215 166.375 987.451 166.375 986.206 166.168C981.092 165.2 976.115 160.155 973.005 152.966C968.65 142.667 965.747 124.627 966.715 114.398C967.199 109.836 967.268 109.767 969.203 109.767C970.516 109.767 971.553 110.319 972.175 111.356C973.143 112.739 973.143 113.361 972.244 116.678C970.724 122.485 970.931 126.148 973.143 130.848C975.769 136.308 979.778 139.903 983.926 140.525C986.483 140.939 987.105 141.285 987.105 142.391C987.105 145.363 988.833 149.372 991.39 152.275C995.538 156.975 1000.45 158.288 1006.8 156.422C1007.84 156.077 1008.39 156.491 1009.09 158.012C1010.54 161.33 1015.03 164.025 1019.18 164.025C1024.36 164.025 1030.24 160.984 1032.65 157.044C1034.04 154.694 1034.87 154.072 1036.32 154.003C1040.6 154.003 1046.06 149.856 1048.28 145.018C1049.45 142.46 1049.73 142.253 1052.22 142.253C1059.06 142.253 1064.86 135.341 1064.73 127.392C1064.59 122.277 1063.27 118.406 1059.75 113.153C1056.98 109.075 1056.98 109.006 1058.09 106.449C1059.82 102.371 1059.06 92.9013 1056.78 88.9615C1054.01 84.3305 1049.8 80.5981 1046.76 80.1142C1043.99 79.6304 1044.13 79.7686 1042.47 73.4787C1040.33 65.2535 1033.76 60.346 1024.78 60.346H1019.94L1017.79 57.2356C1014.48 52.3282 1010.47 50.2546 1003.9 49.9781C1000.93 49.8398 997.058 49.9781 995.33 50.3237ZM973.143 65.3226C971.208 67.4653 969.894 69.6772 969.065 72.3728C968.581 74.0317 968.581 73.9626 968.512 71.7508C968.443 68.986 970.309 65.7374 972.728 64.4241C975.078 63.1108 975.147 63.249 973.143 65.3226ZM958.351 88.1321C956.139 92.4175 956.209 96.3573 958.42 99.6751C960.356 102.509 959.388 103.062 956.485 100.781C954.135 98.9148 953.513 95.5279 954.895 92.141C955.932 89.791 959.181 84.8835 959.734 84.8835C959.872 84.8835 959.25 86.335 958.351 88.1321ZM957.867 105.343C959.457 106.725 959.526 107.002 958.42 106.725C957.66 106.518 956.209 106.172 955.103 105.896C953.582 105.55 953.375 105.274 953.997 104.513C955.103 103.2 955.656 103.269 957.867 105.343ZM963.19 107.624C962.775 108.039 961.531 106.311 961.531 105.274C961.6 104.859 962.015 105.205 962.568 105.896C963.121 106.656 963.397 107.416 963.19 107.624Z" fill="white"/>
<path d="M887.918 68.2947C880.937 71.0595 872.366 79.6303 872.366 83.9848C872.366 86.404 873.403 85.9202 875.407 82.5333C879.071 76.2434 888.125 70.0918 893.655 70.23C896.005 70.23 896.558 70.0227 896.558 68.9859C896.558 66.5667 893.102 66.2902 887.918 68.2947Z" fill="white"/>
<path d="M907.617 70.7139C907.617 72.3728 927.04 76.4508 939.067 77.3494C944.043 77.695 950.057 78.3862 952.545 78.9391C956.277 79.7686 957.176 79.7686 958.005 79.0083C958.766 78.2479 958.627 77.9023 957.245 77.0038C955.31 75.7596 943.283 73.8243 937.2 73.8243C934.781 73.8243 928.699 73.064 923.584 72.0963C915.151 70.5065 907.617 69.8845 907.617 70.7139Z" fill="white"/>
<path d="M490.826 119.72C490.826 120.964 500.365 135.479 507.691 145.363C510.802 149.51 515.778 156.56 518.82 160.915C521.792 165.27 526.285 171.629 528.773 175.085C543.288 195.06 556.904 216.349 558.08 220.911C558.356 222.017 558.84 222.501 559.738 222.293C561.674 221.878 560.983 218.768 557.734 212.824C554.969 207.709 539.694 184.899 530.846 172.665C528.22 169.071 523.243 162.021 519.718 156.975C502.162 132.023 492.278 118.752 491.172 118.752C490.964 118.752 490.826 119.167 490.826 119.72Z" fill="white"/>
<path d="M1041.02 158.98C1041.02 159.602 1042.88 163.887 1045.1 168.587C1049.8 178.471 1052.91 187.457 1054.84 196.995C1057.33 209.23 1056.5 240.126 1053.39 248.006C1051.73 252.36 1049.31 265.355 1049.31 270.47C1049.31 272.336 1048.83 277.312 1048.28 281.529C1047.65 285.676 1047.03 292.933 1046.82 297.564C1046.55 304.96 1045.1 314.706 1041.64 332.193C1040.81 336.133 1040.6 336.548 1039.29 336.202C1038.32 335.926 1036.04 336.617 1033.42 337.93C1022.77 343.045 1009.5 341.455 996.367 333.438C988.626 328.737 974.042 316.503 966.024 307.932C961.462 303.094 959.457 301.435 959.457 302.334C959.457 303.094 959.941 304.338 960.494 305.098C961.462 306.55 961.393 306.55 956.14 307.103C949.504 307.725 946.67 307.656 936.233 306.688C929.321 306.066 925.45 306.135 913.769 307.103C899.461 308.278 879.555 311.734 871.33 314.361C869.049 315.121 864.556 316.227 861.307 316.849C858.059 317.471 855.087 318.231 854.672 318.577C854.257 318.922 853.082 318.231 851.631 316.78L849.35 314.43L851.009 313.808C851.907 313.462 853.912 312.633 855.432 312.01C859.649 310.213 880.039 306.274 896.904 303.993C905.475 302.887 939.413 300.467 949.642 300.329C958.351 300.191 958.835 300.122 958.628 298.809C958.42 297.564 957.798 297.426 952.2 297.219C946.463 297.011 925.589 298.256 907.272 299.915C883.08 302.057 846.792 309.591 846.792 312.494C846.792 313.808 853.704 323.415 859.787 330.465C872.228 344.911 877.758 352.1 878.518 354.795C880.246 360.671 880.661 378.849 879.555 396.958C878.38 415.137 878.587 425.643 880.315 435.32C881.421 441.679 881.767 442.508 883.218 441.955C883.91 441.679 884.117 441.817 883.91 442.508C883.011 444.858 882.665 449.835 883.287 452.116C883.702 453.567 883.91 454.673 883.771 454.673C883.564 454.673 877.481 455.779 870.155 457.162C853.013 460.341 845.825 460.479 834.005 457.784C829.443 456.747 824.951 455.71 823.983 455.503C821.356 455.019 820.527 454.051 820.527 451.494C820.527 448.867 821.149 448.383 830.48 442.992C836.148 439.813 836.701 439.605 837.392 440.711C837.807 441.402 839.12 443.407 840.226 445.204C843.405 450.111 845.41 450.319 845.41 445.688V442.992L847.345 444.098C849.834 445.549 851.631 444.858 851.631 442.577C851.631 440.158 852.737 440.365 853.22 442.923C853.497 444.029 854.465 445.48 855.432 446.102C857.091 447.208 857.299 447.208 858.543 446.033C860.547 444.236 860.34 440.711 858.128 438.292L856.4 436.357L856.815 440.158C857.299 444.374 856.469 444.305 855.432 440.02C854.741 437.186 854.672 437.186 851.631 437.117C848.935 437.048 848.52 437.255 848.313 438.568C848.037 440.435 848.175 440.435 845.686 439.121C844.028 438.292 843.544 438.292 842.23 439.052C841.401 439.605 840.433 439.813 839.88 439.467C838.636 438.707 840.088 438.015 848.175 435.458C858.612 432.209 858.335 432.209 859.579 434.629C861.584 438.568 865.386 439.121 870.639 436.357C873.058 435.043 874.44 434.698 876.168 435.043C878.726 435.527 879.901 434.49 878.587 432.901C876.79 430.758 873.542 430.896 869.671 433.315C866.699 435.182 865.8 435.458 864.21 434.905C862.621 434.352 862.344 433.799 862.137 431.242C861.86 427.025 859.165 415.137 856.193 405.115C849.834 383.273 847.414 361.085 848.175 331.64C848.382 324.245 848.451 318.024 848.382 317.886C848.244 317.678 847.829 317.886 847.414 318.3C845.756 319.959 845.272 328.876 845.617 348.229C846.032 368.412 847 378.849 849.488 390.392C850.248 393.986 851.078 397.719 851.285 398.686C851.492 399.654 851.423 399.931 851.216 399.378C850.456 397.58 848.728 395.922 847.622 395.922C847.069 395.922 844.304 394.885 841.539 393.572C838.774 392.258 832.277 389.563 826.955 387.558C821.702 385.623 816.656 383.618 815.689 383.134C813.615 382.098 796.75 377.121 790.114 375.67C782.788 373.942 766.959 371.246 756.246 369.725C743.459 367.997 723.483 365.302 707.171 363.09C700.121 362.191 690.997 360.947 686.781 360.394C657.197 356.454 632.798 350.164 614.205 341.663C607.293 338.552 603.699 337.585 601.833 338.414C588.631 344.22 580.06 350.234 553.034 372.421C541.422 381.959 526.7 394.055 520.202 399.239C513.774 404.423 506.655 410.437 504.305 412.51C502.024 414.653 497.877 418.316 495.181 420.736C490.757 424.537 488.96 427.025 490.688 427.025C490.965 427.025 491.241 428.2 491.241 429.583C491.241 431.311 493.384 437.048 497.324 446.033C503.406 459.788 506.102 467.806 507.07 474.649C507.553 478.174 509.005 480.593 510.249 479.902C510.595 479.625 510.871 478.865 510.871 478.036C510.871 477.068 511.217 476.792 511.977 477.068C512.599 477.275 517.438 477.967 522.829 478.589C539.21 480.386 536.584 479.556 563.748 491.652C572.871 495.73 583.723 500.292 587.801 501.744C596.994 505.061 612.823 509.07 629.411 512.319C641.092 514.531 645.585 515.222 661.206 516.881C675.86 518.402 681.735 519.577 704.544 525.452C709.797 526.765 716.156 528.217 718.714 528.631C721.271 529.046 729.013 530.428 735.855 531.672C742.698 532.986 751.753 534.576 755.9 535.198C763.296 536.303 776.359 539.414 782.373 541.418C783.963 541.971 786.797 542.455 788.594 542.524C790.391 542.524 793.57 542.939 795.644 543.354L799.445 544.183L799.86 549.436C800.62 558.353 802.279 558.284 803.04 549.367L803.454 544.598L806.979 543.423C819.49 539.345 840.157 524.968 869.049 500.292C871.537 498.219 876.79 493.726 880.73 490.339C884.67 486.952 890.96 481.077 894.692 477.206C898.77 472.921 901.397 470.709 901.397 471.4C901.397 473.405 893.863 481.492 882.596 491.721C876.79 496.974 867.183 506.167 861.307 512.112C848.451 524.968 828.407 541.487 811.196 553.376C808.707 555.173 808.085 555.864 808.707 556.486C811.472 559.251 843.06 534.852 867.874 510.798C906.788 473.059 907.41 472.437 905.751 469.05C905.337 468.152 904.645 459.995 904.231 450.526C903.609 434.767 903.401 433.523 902.088 432.417C900.36 431.034 900.36 428.892 902.088 425.021C903.954 420.943 903.885 417.625 901.95 416.45C901.051 415.897 897.595 414.584 894.139 413.547C890.752 412.51 886.536 411.197 884.877 410.575L881.836 409.469L882.32 404.285C883.771 386.936 883.426 365.993 881.56 357.906C881.283 356.523 882.043 357.007 885.914 360.74C892.757 367.237 894.278 368.274 897.319 368.274C898.77 368.274 904.991 367.03 911.212 365.44C922.409 362.675 922.547 362.675 929.045 363.435C932.639 363.85 939.343 364.818 943.905 365.578C948.467 366.338 954.826 367.237 958.006 367.444L963.881 367.928L965.747 380.37C966.784 387.213 968.443 398.41 969.411 405.253C971.968 422.602 976.806 446.172 981.299 463.313C988.626 491.099 997.473 515.498 1000.31 515.498C1001 515.498 1001.76 515.153 1001.97 514.807C1002.17 514.462 1002.86 514.116 1003.42 514.116C1004.04 514.116 1005.01 513.494 1005.63 512.665C1006.74 511.351 1006.87 511.766 1008.67 522.549C1015.51 563.537 1016.96 574.319 1017.79 592.221L1018.14 599.479L1016.27 597.267C1015.24 596.092 1012.89 594.364 1010.95 593.396C1006.8 591.323 998.372 588.765 995.814 588.765C994.708 588.765 993.81 588.281 993.533 587.521C993.326 586.899 991.529 584.342 989.524 581.853C987.589 579.365 984.202 575.01 982.059 572.177C979.917 569.343 974.664 562.569 970.378 557.247C966.093 551.855 960.563 544.943 958.075 541.764C951.025 532.848 946.878 528.286 945.357 527.94C944.527 527.733 943.836 527.111 943.836 526.558C943.767 526.005 943.698 525.106 943.629 524.553C943.491 522.894 939.689 524.069 927.317 529.599C917.709 533.884 913.631 535.267 904.853 537.271C898.978 538.654 892.204 539.898 889.785 540.174C887.435 540.382 885.292 540.865 885.085 541.142C884.463 542.179 880.868 541.833 879.901 540.658C878.933 539.483 875.892 539.898 874.993 541.28C874.717 541.764 874.44 544.598 874.44 547.639C874.44 554.62 872.781 566.716 871.399 570.725C869.74 575.218 870.017 576.531 873.058 579.849C876.859 583.927 883.426 593.604 886.191 599.133C887.435 601.621 889.232 604.663 890.199 605.907C891.167 607.151 891.789 608.257 891.651 608.395C890.545 609.432 881.698 613.717 878.587 614.754C876.514 615.376 871.399 617.45 867.183 619.385C863.035 621.251 856.469 624.085 852.668 625.744C848.866 627.403 843.613 629.684 840.986 630.928L836.217 633.071L833.245 629.753C830.411 626.643 826.471 620.698 815.274 602.935C809.33 593.396 800.828 582.821 795.782 578.536C793.639 576.738 790.944 574.388 789.838 573.282C787.902 571.485 787.626 571.416 785.138 572.107C781.198 573.282 773.318 577.222 768.411 580.402C765.992 581.992 760.531 584.618 756.177 586.277C747.744 589.456 742.767 591.807 742.145 592.843C741.039 594.571 743.804 594.018 752.582 590.839C764.817 586.346 766.959 585.448 770.277 583.028C771.728 581.922 776.083 579.641 779.815 577.983L786.658 574.872L789.423 577.084C790.944 578.328 792.188 579.503 792.188 579.711C792.188 579.987 789.63 580.747 786.52 581.439C779.401 583.028 774.286 585.309 765.853 590.701C762.19 592.982 758.181 595.332 756.799 595.885C755.485 596.438 753.274 597.889 751.891 599.133L749.334 601.345L745.463 598.166C742.007 595.332 739.657 594.226 739.657 595.401C739.657 595.608 741.661 597.889 744.081 600.377L748.504 605.008L748.988 618.487C749.195 625.882 749.541 634.592 749.748 637.84C750.163 643.646 750.232 643.715 752.928 646.135C762.466 654.429 770.484 661.617 775.945 666.663C779.401 669.773 783.133 673.298 784.239 674.335C785.414 675.372 790.253 680.625 795.091 685.878C803.247 694.933 807.947 700.462 816.933 711.729C825.089 722.028 827.162 724.378 828.683 724.931C830.065 725.553 830.204 726.037 830.204 730.391C830.204 738.616 832.761 737.441 833.107 729.078L833.314 723.894L842.3 719.194C853.151 713.595 855.916 712.282 866.146 707.72C870.5 705.785 876.099 703.158 878.587 701.845C881.076 700.462 884.463 699.218 886.191 698.942C891.236 698.251 901.259 695.209 908.309 692.237C911.903 690.786 917.986 688.643 921.787 687.606C933.399 684.427 943.007 681.316 947.638 679.243C952.2 677.169 962.291 673.782 963.881 673.782C964.572 673.782 964.779 675.303 964.779 679.865C964.779 683.183 964.849 686.431 964.918 687.122C964.987 687.814 967.89 690.164 971.761 692.652C975.424 695.071 981.714 699.771 985.723 703.158C989.732 706.476 997.197 712.42 1002.31 716.291C1012.68 724.101 1015.1 726.175 1028.65 738.686C1033.76 743.386 1040.05 749.123 1042.68 751.473C1049.38 757.417 1052.28 760.251 1053.53 762.186C1055.46 765.228 1056.57 763.638 1057.88 756.035C1059.06 749.33 1059.2 749.054 1060.58 749.537C1063.27 750.436 1068.18 750.159 1075.16 748.57C1078.97 747.74 1082.9 747.049 1083.94 747.049C1085.6 747.049 1091.75 745.321 1095.14 743.939C1096.24 743.455 1096.31 743.593 1095.48 745.39C1095.07 746.496 1094.31 747.809 1093.83 748.362C1092.51 749.814 1086.29 751.887 1079.03 753.27C1068.46 755.343 1060.37 758.938 1060.37 761.633C1060.37 763.016 1061.41 763.43 1062.1 762.325C1062.86 761.08 1073.3 757.486 1079.24 756.449C1084.84 755.482 1093.2 753.201 1095.55 751.957C1096.8 751.335 1097.28 750.367 1098.46 746.358C1098.94 744.63 1101.36 739.377 1103.71 734.677C1106.13 729.977 1108.06 725.415 1108.06 724.516C1108.06 723.618 1108.69 722.581 1109.45 722.166C1110.21 721.751 1110.83 720.715 1110.83 719.885C1110.83 719.056 1111.45 717.397 1112.21 716.291C1112.97 715.116 1113.59 713.941 1113.59 713.595C1113.59 713.25 1105.44 704.679 1095.42 694.587C1085.39 684.496 1071.36 669.635 1064.17 661.686C1046.34 641.918 1045.86 641.434 1042.88 639.015C1040.67 637.356 1040.05 637.149 1039.57 637.909C1038.53 639.568 1038.88 638.186 1040.67 633.417C1042.4 628.785 1042.95 624.984 1041.78 625.675C1041.43 625.952 1040.33 628.233 1039.36 630.79C1037.36 635.905 1033.83 641.296 1032.45 641.296C1031.89 641.296 1031.62 640.674 1031.83 639.706C1032.1 638.186 1031.76 637.978 1026.02 636.527C1017.52 634.453 1013.37 632.103 1006.53 625.744C999.063 618.832 994.847 615.376 989.386 611.713C984.686 608.533 981.921 605.423 982.82 604.525C983.165 604.179 982.474 602.935 981.161 601.621C979.087 599.548 978.811 598.788 978.811 595.815C978.811 592.843 979.018 592.359 980.401 591.945C983.373 591.184 995.607 591.53 999.823 592.567C1004.73 593.811 1013.3 597.613 1014.55 599.133C1015.65 600.516 1015.65 601.207 1014.48 601.207C1013.99 601.207 1013.16 601.621 1012.75 602.174C1012.13 602.935 1011.57 602.935 1010.33 602.382C1008.95 601.76 1008.81 601.345 1009.36 600.308C1010.19 598.718 1009.64 597.06 1008.26 597.06C1007.63 597.06 1005.77 597.751 1004.04 598.58C1000.45 600.308 999.478 599.824 1001.07 597.06C1001.97 595.539 1002.03 594.917 1001.34 594.364C1000.17 593.396 999.063 594.295 997.819 597.267C996.575 600.308 996.505 603.073 997.68 603.488C998.095 603.626 999.823 603.349 1001.48 602.866C1004.25 602.105 1004.39 602.105 1004.04 603.211C1003.42 605.285 1005.42 606.391 1008.19 605.492C1010.47 604.801 1010.61 604.87 1010.61 606.391C1010.61 607.358 1011.44 608.672 1012.68 609.639C1013.85 610.538 1016.34 612.542 1018.21 614.132C1025.05 619.938 1036.04 623.532 1040.19 621.321C1042.75 619.938 1043.71 616.966 1046.13 603.142C1049.52 584.134 1050.63 571.969 1051.11 547.57C1051.52 529.253 1051.39 524.899 1050.35 517.226C1048.9 506.167 1046.76 498.564 1043.02 491.099C1039.57 484.326 1039.84 484.602 1038.6 485.846C1037.77 486.676 1038.05 487.782 1041.09 494.417C1045.1 503.195 1046.69 510.245 1047.93 525.521C1049.17 541.004 1047.17 578.259 1044.13 597.474C1043.16 603.211 1042.33 609.778 1042.26 612.059C1042.06 615.86 1041.85 616.344 1040.12 617.381C1039.01 618.003 1036.87 618.487 1035.35 618.487C1031.62 618.487 1023.32 614.478 1018.83 610.538C1016.96 608.81 1015.1 607.428 1014.75 607.428C1014.34 607.428 1014.06 606.805 1014.06 606.045C1014.06 604.041 1017.52 602.727 1018.62 604.317C1019.31 605.285 1019.45 605.216 1019.87 603.833C1020.63 600.861 1020.28 581.508 1019.25 572.246C1018.69 567.2 1016.2 551.026 1013.72 536.442C1011.23 521.788 1009.22 509.623 1009.22 509.278C1009.22 508.656 1026.43 492.966 1031.07 489.371C1033.83 487.298 1042.33 482.874 1045.1 482.114C1045.79 481.976 1046.96 480.939 1047.65 479.971C1048.83 478.105 1048.83 478.036 1046.69 474.994C1044.54 472.022 1040.53 462.207 1039.01 456.401C1037.84 451.908 1036.73 434.145 1036.39 414.307C1036.11 399.861 1036.32 393.502 1037.22 385.277C1039.71 362.122 1042.61 340.764 1045.51 324.037C1047.17 314.361 1048.9 302.956 1049.31 298.739C1049.66 294.523 1050.49 287.819 1051.04 283.879C1051.59 279.939 1052.08 275.031 1052.08 273.027C1052.08 267.705 1053.87 256.507 1055.81 249.872C1058.3 241.439 1059.27 231.486 1059.34 215.865C1059.34 200.313 1058.64 195.544 1054.36 183.033C1051.52 174.532 1045.23 161.883 1042.75 159.533C1041.43 158.289 1041.02 158.15 1041.02 158.98ZM1003 358.943C1003 359.15 1001.83 359.772 1000.45 360.394C997.266 361.707 972.244 368.965 970.793 368.965C970.102 368.965 969.894 369.449 970.171 370.486C970.309 371.384 971 375.67 971.622 380.024C972.175 384.379 973.419 391.567 974.318 395.922C975.217 400.276 976.461 407.257 977.083 411.474C978.603 421.634 983.649 444.72 987.382 458.82C989.04 465.11 990.63 471.608 990.907 473.336C991.943 480.8 1001.14 504.094 1003.9 506.375C1004.94 507.273 1004.87 507.481 1003.56 509.347C1002.73 510.453 1001.62 511.351 1001.14 511.351C999.063 511.351 992.911 494.901 988.142 476.446C986.76 471.124 984.686 463.521 983.58 459.512C980.815 449.42 975.078 420.805 972.866 405.944C968.65 377.121 967.199 368.688 966.438 368.412C964.641 367.79 965.885 366.338 968.65 365.924C970.24 365.647 974.871 364.541 978.949 363.366C991.252 359.841 1003 357.698 1003 358.943ZM611.717 396.475C611.786 398.133 608.606 401.382 600.312 408.156C598.1 410.022 592.156 415.482 586.972 420.321C578.747 428.131 577.433 429.168 575.913 428.753C574.945 428.477 573.977 428.131 573.77 427.924C573.563 427.786 575.152 425.989 577.295 424.053C579.369 422.049 587.732 414.1 595.888 406.359C611.371 391.567 611.578 391.429 611.717 396.475ZM624.573 394.47C626.854 394.885 631.347 395.645 634.595 396.198C637.844 396.751 644.203 397.58 648.765 397.995C656.299 398.617 678.486 403.594 690.582 407.257C704.406 411.543 717.055 414.169 743.113 418.04C754.31 419.768 760.669 421.012 768.342 423.224C777.88 425.92 801.657 431.656 807.049 432.624C809.744 433.039 814.514 434.49 817.762 435.734C821.011 436.979 824.812 438.154 826.264 438.43C829.582 439.052 829.996 439.813 827.784 441.264C826.126 442.301 825.918 442.301 824.743 441.264C824.121 440.642 823.084 440.158 822.531 440.158C821.978 440.158 818.868 439.26 815.689 438.154C807.74 435.389 787.142 430.896 770.761 428.408C752.721 425.574 743.873 423.915 732.745 421.15C719.958 418.04 702.263 414.307 687.817 411.819C681.182 410.644 673.095 408.916 669.846 408.018C659.547 405.045 639.503 401.382 627.338 400.276C620.91 399.654 615.587 399.17 615.518 399.101C615.449 399.101 615.242 397.65 614.965 395.991L614.481 392.949L617.454 393.433C619.112 393.641 622.292 394.124 624.573 394.47ZM628.858 403.525C635.425 404.285 642.89 405.322 645.447 405.944C648.004 406.566 652.635 407.534 655.677 408.087C658.718 408.64 665.077 410.229 669.846 411.474C674.615 412.787 683.325 414.653 689.2 415.621C701.365 417.694 718.23 421.219 732.399 424.744C742.767 427.302 753.965 429.445 772.143 432.279C786.174 434.49 806.357 438.845 814.652 441.541C818.108 442.646 821.495 443.614 822.255 443.752C823.361 443.96 823.084 444.374 820.734 445.895C817.969 447.692 817.762 447.969 817.762 450.941C817.762 452.669 818.039 454.673 818.453 455.364C819.006 456.47 818.315 457.3 813.753 461.101C810.85 463.59 807.049 467.046 805.321 468.843C803.593 470.571 798.892 474.234 794.745 476.861C787.833 481.423 787.211 481.699 785.069 481.008C783.894 480.662 780.852 480.109 778.364 479.902C770.277 479.003 758.388 476.169 735.164 469.534C709.383 462.207 711.664 462.76 689.891 458.129C672.749 454.466 655.953 450.388 637.706 445.342C631.623 443.683 622.914 441.471 618.352 440.504C613.79 439.536 603.561 436.84 595.612 434.49L581.166 430.205L588.009 423.777C591.81 420.183 597.685 414.999 601.072 412.234C604.528 409.4 608.675 405.875 610.403 404.285C612.753 402.142 613.928 401.589 615.242 401.797C616.209 402.004 622.292 402.764 628.858 403.525ZM781.613 486.883C781.405 487.09 780.783 487.159 780.299 486.952C779.746 486.745 779.954 486.537 780.714 486.537C781.474 486.468 781.889 486.676 781.613 486.883ZM885.43 579.434C888.195 584.687 892.342 592.29 894.692 596.299L898.909 603.488L897.319 604.732C896.42 605.492 895.453 606.045 895.176 606.045C894.07 606.045 890.891 601.621 888.471 596.783C885.499 590.839 880.799 584.134 876.306 579.296L872.92 575.702L874.371 571.002C875.131 568.444 875.961 565.403 876.168 564.366C876.652 562.154 876.03 561.187 885.43 579.434ZM973.903 682.63C976.806 685.256 983.649 690.786 989.179 694.864C999.823 702.813 1004.94 706.891 1019.25 719.056C1033.9 731.497 1050.42 743.317 1054.36 744.077C1055.95 744.423 1056.22 744.768 1056.22 746.911C1056.22 748.224 1055.88 751.335 1055.4 753.754L1054.57 758.246L1050.76 754.445C1048.62 752.302 1042.12 746.289 1036.32 741.036C1030.44 735.783 1023.39 729.424 1020.49 726.797C1017.66 724.24 1010.95 718.848 1005.56 714.77C1000.17 710.692 992.22 704.471 987.935 700.877C983.649 697.283 976.875 692.376 972.936 690.025C967.406 686.708 965.955 685.533 966.438 684.772C966.784 684.219 967.06 682.975 967.06 681.938C967.06 679.934 967.683 677.93 968.305 677.93C968.512 677.93 971 680.072 973.903 682.63Z" fill="white"/>
<path d="M1028.23 163.542C1027.4 167.55 1030.03 182.826 1033.21 192.157C1035 197.341 1035 197.548 1033.83 200.521C1032.72 203.493 1029.27 207.571 1029.27 205.981C1029.27 204.875 1027.61 204.944 1023.81 206.327C1018.69 208.124 1016.34 207.294 1011.16 201.834C1008.81 199.276 1005.77 195.267 1004.52 192.848C1002.1 188.355 999.684 186.835 1000.58 190.429C1001.27 193.332 999.961 191.535 998.509 187.733C996.436 182.204 995.537 181.651 988.625 181.651C983.372 181.651 969.894 183.517 965.47 184.83C962.429 185.66 954.273 190.153 943.628 196.857C931.118 204.668 922.823 209.299 914.736 213.1C911.35 214.621 909 216.142 909 216.764C909 219.943 927.178 211.027 949.434 196.857C959.733 190.291 965.125 187.872 971.898 186.766C986.552 184.416 992.911 183.724 993.602 184.416C994.086 184.899 993.602 185.107 992.219 185.107C991.114 185.176 989.386 185.867 988.349 186.697L986.483 188.217L987.519 194.023C989.04 202.663 992.289 211.856 997.956 223.33C1002.31 232.039 1003.76 234.251 1007.7 238.26C1012.4 243.098 1015.24 244.55 1019.94 244.55C1023.25 244.55 1027.06 243.236 1029.06 241.37L1031 239.642L1028.58 239.988C1027.26 240.264 1024.08 240.61 1021.53 240.817C1017.31 241.232 1016.62 241.094 1013.72 239.435C1011.85 238.329 1009.22 235.771 1007.36 233.283C1004.11 228.86 994.915 210.888 995.606 210.266C995.814 210.059 996.505 210.819 997.058 211.994C999.961 217.524 1009.43 230.795 1012.33 233.352C1014.13 234.942 1016.9 236.601 1018.42 237.016C1025.67 238.951 1035.83 233.905 1039.64 226.509C1040.33 225.127 1041.64 221.395 1042.4 218.215C1044.13 211.787 1043.99 205.29 1042.12 198.24C1040.6 192.779 1041.36 193.125 1043.09 198.723C1046.13 208.607 1046.48 218.353 1044.06 225.404C1043.44 227.201 1041.29 231.486 1039.22 234.873C1037.15 238.26 1035.49 241.37 1035.49 241.785C1035.49 245.794 1044.75 233.145 1047.38 225.611C1049.31 219.943 1049.1 208.262 1046.82 200.59C1044.61 192.917 1041.71 186.835 1038.88 183.863C1036.11 180.891 1034.66 181.858 1036.66 185.245L1038.05 187.595L1036.18 187.319C1034.45 187.042 1034.24 186.627 1032.79 180.476C1031.96 176.882 1031 171.421 1030.58 168.311C1029.75 162.021 1028.92 160.431 1028.23 163.542Z" fill="white"/>
<path d="M978.811 227.062C969.341 228.652 954.411 231.763 950.955 232.799C948.536 233.56 942.385 236.048 937.27 238.398C932.155 240.679 926.28 243.236 924.206 243.928C919.506 245.586 909.276 247.314 904.023 247.314C900.014 247.314 898.632 248.006 900.222 249.25C901.881 250.632 906.719 250.77 913.838 249.803C922.271 248.559 926.902 247.038 941.14 240.748C954.066 235.08 954.964 234.804 972.106 231.763C979.778 230.38 986.345 228.929 986.69 228.652C988.073 227.27 983.165 226.302 978.811 227.062Z" fill="white"/>
<path d="M956.001 237.016C956.001 237.43 956.761 239.919 957.66 242.476C961.6 253.259 962.498 266.253 960.494 283.602C959.319 294.316 959.25 295.007 960.148 295.007C960.494 295.007 961.254 293.348 961.807 291.344C963.811 284.155 964.572 277.174 964.572 266.668C964.572 257.89 964.295 254.849 963.051 249.734C961.116 242.131 958.558 236.255 957.107 236.255C956.485 236.255 956.001 236.601 956.001 237.016Z" fill="white"/>
<path d="M973.972 306.066C973.972 309.107 998.924 324.314 1008.46 327.078C1016.34 329.359 1025.26 328.046 1028.92 324.037C1030.86 321.895 1029.68 321.618 1025.4 323.277C1020.7 325.074 1013.85 325.212 1008.46 323.623C1003.42 322.102 996.989 318.784 984.893 311.527C979.294 308.14 974.594 305.375 974.387 305.375C974.18 305.375 973.972 305.721 973.972 306.066Z" fill="white"/>
<path d="M511.977 485.017C511.009 486.537 517.161 488.818 530.224 491.652C538.933 493.518 559.254 500.223 579.645 507.895C593.607 513.218 604.528 516.051 630.309 521.097C638.189 522.618 651.045 525.383 658.856 527.249C666.735 529.184 681.803 532.087 692.379 533.815C723.068 538.792 731.5 540.312 746.569 543.907C761.982 547.57 790.667 555.035 793.708 556.21C796.058 557.108 797.717 556.556 797.717 554.897C797.717 553.376 794.814 552.408 775.184 547.293C742.214 538.584 731.017 536.234 698.185 531.119C678.209 527.94 669.293 526.212 654.294 522.48C649.732 521.374 639.295 519.162 631.139 517.572C602.592 512.042 592.57 509.347 576.189 502.919C563.955 498.08 539.141 489.993 533.058 488.818C529.809 488.196 524.211 486.952 520.617 486.054C513.497 484.256 512.53 484.118 511.977 485.017Z" fill="white"/>
<path d="M739.933 602.727C740.832 605.976 742.352 622.703 742.767 634.108C743.044 640.605 743.527 646.342 743.873 646.895C746.776 651.664 745.463 610.953 742.422 602.935C741.592 600.654 739.311 600.516 739.933 602.727Z" fill="white"/>
<path d="M752.444 656.502C752.651 656.848 755.209 658.852 758.181 660.926C770.208 669.497 787.695 688.643 810.643 718.364C821.771 732.81 826.747 737.718 826.747 734.331C826.747 733.778 823.844 729.769 820.319 725.484C816.794 721.198 812.371 715.669 810.504 713.18C795.782 693.62 773.871 669.497 764.332 662.308C758.388 657.885 751.062 654.291 752.444 656.502Z" fill="white"/>
<path d="M943.905 684.772C942.039 685.533 934.851 688.712 928.008 691.961C910.175 700.393 903.954 702.674 891.789 705.37C881.283 707.72 875.2 709.517 868.911 712.351C862.482 715.116 835.042 736.958 836.286 738.202C837.323 739.239 839.949 737.58 851.631 728.387C857.16 724.101 863.45 719.401 865.662 717.95C870.915 714.494 879.278 711.591 891.029 709.033C905.613 705.785 912.318 703.296 935.265 692.375L945.979 687.261L952.545 687.053C960.978 686.846 962.222 686.5 962.222 684.841C962.222 683.528 961.738 683.459 954.826 683.459C949.297 683.528 946.463 683.874 943.905 684.772Z" fill="white"/>
</svg>
