<svg width="239" height="239" viewBox="0 0 239 239" fill="none" xmlns="http://www.w3.org/2000/svg">
<g clip-path="url(#clip0_36_11)">
<path d="M83.9768 0.746863C69.9729 3.26757 58.163 12.3234 52.0946 25.2537C48.0335 33.7961 47.52 38.4174 47.7067 61.8506L47.8468 79.1221L49.2005 82.0629C50.7876 85.5172 54.4753 89.1582 57.6495 90.3719C59.0499 90.8853 59.8434 91.4922 59.9368 92.1457C60.0768 92.7059 60.4036 94.4797 60.6837 96.1135C61.944 103.069 65.9118 111.144 70.8132 116.653C73.9874 120.294 79.0755 124.168 83.7434 126.549L87.7579 128.603V131.917V135.231L83.9302 135.604C75.9013 136.305 67.2655 139.339 60.637 143.773C51.7679 149.748 44.2524 160.298 41.5917 170.614C40.7515 173.742 39.6778 180.604 39.6778 182.844C39.6778 183.311 35.9434 183.451 22.453 183.451C5.41492 183.451 5.27488 183.451 3.68777 184.525C2.80086 185.085 1.63387 186.485 1.02703 187.652C-0.0466021 189.706 -0.0466021 189.893 0.140117 203.29C0.326835 218.181 0.373515 218.554 3.54773 224.529C5.88172 228.964 10.2696 233.258 14.8442 235.639C19.9323 238.206 22.2663 238.767 28.2413 238.72C33.9829 238.673 37.5772 237.74 41.7317 235.219L44.019 233.819L45.2327 234.986C45.8862 235.639 47.7067 236.713 49.2472 237.46L52.0479 238.767L141.673 238.907C190.967 238.953 231.998 238.907 232.838 238.767C234.706 238.44 237.553 236.013 238.347 234.005C238.907 232.792 239 223.782 239 184.758C239 131.497 239.234 134.998 235.779 132.71L234.192 131.637H187.232C140.739 131.637 140.273 131.637 138.685 132.617C137.705 133.224 136.818 134.344 136.211 135.745L135.278 137.985L131.217 136.958C128.976 136.398 125.428 135.745 123.328 135.604L119.5 135.231V131.87V128.509L121.927 127.389C130.703 123.328 138.312 115.906 142.7 107.13C144.52 103.582 146.481 97.3738 146.854 94.0129L147.181 91.4922L150.075 90.0918C153.39 88.5047 156.424 85.4705 157.917 82.2496C158.944 80.1023 158.944 79.5889 158.944 58.8164V37.5771L157.451 33.8428C154.183 25.8139 147.601 19.6521 139.806 17.3182C138.779 16.9914 137.659 16.6646 137.332 16.5246C136.865 16.3846 136.958 16.0111 137.659 15.0775C138.919 13.3037 139.712 10.0361 139.292 8.26229C138.499 4.43456 135.885 1.3537 132.664 0.466785C129.91 -0.28009 88.4114 -0.0933716 83.9768 0.746863ZM131.17 8.86913C131.637 9.70936 131.31 10.2228 128.789 12.8369L125.895 15.8711H120.107C114.319 15.8711 114.272 15.8711 112.918 17.2248C111.191 18.9986 111.098 21.0525 112.732 22.6396C113.852 23.8066 113.899 23.8066 123.141 23.8066C128.276 23.8066 133.597 24.04 134.951 24.2734C140.179 25.2537 145.454 28.8014 148.348 33.376C150.495 36.7369 151.242 40.1445 151.242 46.4463V52.1879L148.301 51.9545C145.967 51.7678 144.894 51.9078 142.933 52.748L140.506 53.775L137.939 51.441C134.951 48.7336 132.057 47.4732 126.735 46.6797C120.014 45.6994 114.645 43.6455 108.904 39.8178C106.57 38.2773 105.87 38.0439 103.582 38.0439C101.388 38.0439 100.595 38.2773 98.4009 39.7244C92.5192 43.6455 88.038 45.3726 80.4292 46.6797C74.5009 47.66 72.2602 48.6869 68.9927 51.6744L66.752 53.8217L64.7915 52.9348C63.3444 52.2812 61.7573 52.0478 59.0966 52.0945H55.4089L55.689 45.3726C56.0157 37.8105 56.8093 33.9828 59.0966 29.0348C63.0177 20.4457 69.8796 13.9105 78.422 10.5963C84.677 8.16893 86.2175 8.02889 109.324 7.98221C130.33 7.93554 130.657 7.93554 131.17 8.86913ZM108.297 48.8269C112.031 51.0676 117.306 53.0281 121.834 53.915C124.028 54.3351 126.829 54.8486 128.089 55.1287C132.244 55.9223 135.325 59.4699 135.371 63.391C135.371 65.4916 137.518 67.6855 139.572 67.6855C141.486 67.6855 143.307 65.865 143.307 63.9512C143.307 62.9709 143.727 62.0373 144.66 61.1037C146.434 59.3766 148.488 59.2832 150.075 60.917C151.242 62.0373 151.242 62.1773 151.242 69.8328C151.242 78.5152 150.869 79.9156 148.161 81.9695C147.321 82.623 145.687 83.2766 144.614 83.4166C142.093 83.7434 140.179 84.7236 139.899 85.7506C139.759 86.2174 139.526 88.0379 139.339 89.8584C138.872 95.1332 137.799 98.9143 135.605 103.396C129.49 115.906 117.54 123.281 103.396 123.281C93.5462 123.281 85.564 119.967 78.422 112.965C72.2602 106.943 68.5259 98.8676 67.8724 90.2785C67.4522 85.1904 66.6587 84.1168 63.0177 83.51C59.1899 82.9031 56.8093 80.7559 56.0157 77.2082C55.3155 74.2207 55.4556 64.1379 56.2024 62.3174C56.9493 60.6369 58.163 59.75 59.8434 59.75C61.7106 59.75 62.971 61.057 63.7645 63.7178C64.5581 66.4719 65.7718 67.6855 67.7323 67.6855C69.7862 67.6855 71.3267 66.0984 71.7001 63.5777C72.1202 60.5435 72.6804 59.2832 74.1274 57.7428C75.9946 55.7355 77.395 55.1754 82.4364 54.4285C89.3917 53.3549 96.4403 50.6941 101.435 47.1932C103.302 45.8861 103.442 45.8394 104.563 46.5863C105.216 47.0064 106.897 47.9867 108.297 48.8269ZM103.629 131.357C106.056 131.357 108.857 131.17 109.837 130.983L111.565 130.656V135.698C111.518 142.933 110.024 145.734 105.45 147.088C101.995 148.161 97.514 145.781 96.2069 142.233C95.9269 141.486 95.6935 138.592 95.6935 135.791V130.656L97.4673 130.983C98.4009 131.17 101.202 131.357 103.629 131.357ZM231.065 175.282V210.992H187.186H143.307V175.282V139.572H187.186H231.065V175.282ZM89.1116 145.874C90.512 149.235 94.6665 153.156 98.1208 154.323C105.916 157.03 114.552 153.389 117.866 146.061C118.94 143.68 119.267 143.307 120.34 143.307C122.954 143.353 127.949 144.287 131.59 145.407L135.371 146.621V178.783V210.992H123.048C109.931 210.992 108.577 211.179 106.243 213.279C104.002 215.333 103.629 216.827 103.629 224.296V231.064H79.0288C55.9224 231.064 54.2419 230.971 52.4681 230.178C51.3944 229.711 50.4141 229.104 50.2274 228.824C50.0874 228.59 50.6475 227.237 51.4878 225.836L52.9815 223.269L56.4358 222.989C62.971 222.475 68.3391 218.648 70.5331 212.906C71.7468 209.732 72.2136 201.983 71.5134 197.408C70.6265 191.76 67.639 187.466 62.7843 184.945C60.7304 183.871 59.7501 183.685 54.1485 183.451L47.8468 183.218L47.9868 180.417C48.9671 162.305 63.5778 146.434 81.6895 143.867C87.8979 142.98 87.8979 142.98 89.1116 145.874ZM47.52 203.897L47.38 216.407L45.7929 219.628C39.7712 231.858 24.0868 234.752 14.3307 225.51C12.9304 224.203 11.2499 222.102 10.5964 220.888C8.30906 216.687 7.93563 214.12 7.93563 202.263V191.387H27.8212H47.66L47.52 203.897ZM59.7968 192.46C63.2511 194.794 64.3247 198.295 63.8112 205.764C63.4845 210.572 62.1774 212.906 59.1432 214.306C55.3155 216.034 55.5489 216.687 55.5489 203.29V191.387H56.9026C57.6028 191.387 58.9099 191.854 59.7968 192.46ZM135.371 224.996V231.064H123.468H111.565V224.996V218.928H123.468H135.371V224.996ZM231.065 224.996V231.064H187.186H143.307V224.996V218.928H187.186H231.065V224.996Z" fill="white"/>
<path d="M84.7235 97.1871C83.7433 98.3074 83.5565 98.9609 83.7433 100.035C84.3034 102.742 88.4579 106.756 93.2192 109.184C100.081 112.638 109.65 112.078 116.279 107.83C118.94 106.103 123.234 101.668 123.281 100.501C123.421 98.5875 123.141 97.7473 122.021 96.7203C120.06 94.9932 118.38 95.3666 115.392 98.2141C110.677 102.695 105.963 104.282 100.735 103.209C97.0936 102.509 94.5263 101.015 91.5388 98.0273C88.5979 95.0865 86.6841 94.8531 84.7235 97.1871Z" fill="white"/>
<path d="M180.464 156.19C173.929 157.777 167.86 162.445 165.106 168C163.752 170.754 163.612 171.454 163.612 175.282C163.612 178.877 163.799 179.857 164.873 182.191C165.573 183.685 167.3 186.112 168.747 187.606C176.216 195.448 189.099 197.408 199.369 192.227C217.201 183.311 213.7 160.858 193.674 156.144C189.986 155.303 184.151 155.303 180.464 156.19ZM193.161 164.219C201.423 166.833 205.251 173.788 201.703 179.95C200.256 182.471 198.202 184.151 194.421 185.879C192.46 186.765 191.293 186.952 187.186 186.952C182.658 186.952 182.051 186.859 179.25 185.505C172.295 182.191 169.681 176.636 172.481 170.988C173.742 168.467 175.376 166.973 178.643 165.293C182.751 163.239 188.539 162.819 193.161 164.219Z" fill="white"/>
<path d="M17.8316 199.649C16.4779 200.209 15.8711 202.543 15.8711 207.398C15.8711 213.326 16.7113 216.454 18.9986 218.974C20.9592 221.122 22.3129 221.915 25.3471 222.709C29.0814 223.642 31.7422 222.102 31.7422 219.068C31.7422 217.014 30.1551 215.427 27.7277 215.053C24.5068 214.54 24.0867 213.606 23.8066 206.931C23.5732 201.516 23.4799 201.049 22.4529 200.209C21.426 199.369 19.1854 199.089 17.8316 199.649Z" fill="white"/>
<path d="M29.175 132.804C27.1678 134.764 27.7746 139.572 30.5287 143.633C32.2559 146.154 32.1159 148.161 29.8752 152.409C28.3815 155.257 28.008 156.424 28.008 158.384C28.0547 160.952 28.5215 161.932 30.202 162.819C32.676 164.172 35.2901 162.539 35.8036 159.411C35.9436 158.384 36.9239 156.004 37.9041 154.136C39.4446 151.196 39.678 150.309 39.678 147.741C39.678 144.614 38.3243 140.132 37.1106 139.105C36.7371 138.779 36.317 137.798 36.177 136.818C35.7102 134.297 34.9633 132.57 34.0297 132.104C32.536 131.263 30.342 131.59 29.175 132.804Z" fill="white"/>
<path d="M9.28959 144.66C7.189 146.761 7.60912 150.729 10.3632 155.07C12.2771 158.151 12.2304 159.831 10.0365 164.126C8.49603 167.067 8.21595 168.14 8.16927 170.474C8.16927 172.855 8.30931 173.415 9.28959 174.162C10.6433 175.282 13.1173 175.329 14.471 174.209C15.0779 173.695 15.638 172.528 15.9181 171.221C16.1048 170.007 16.8517 168.14 17.5052 167.113C18.1587 166.04 19.0456 163.846 19.4658 162.259C20.3527 158.618 19.7925 155.21 17.6919 151.942C16.8984 150.729 16.1048 148.768 15.8714 147.601C15.1245 143.54 11.857 142.093 9.28959 144.66Z" fill="white"/>
</g>
<defs>
<clipPath id="clip0_36_11">
<rect width="239" height="239" fill="white"/>
</clipPath>
</defs>
</svg>
