<svg width="239" height="239" viewBox="0 0 239 239" fill="none" xmlns="http://www.w3.org/2000/svg">
<g clip-path="url(#clip0_36_2)">
<path d="M101.575 32.5357C91.2591 34.7297 83.0434 41.1715 78.2354 50.7875C74.1276 58.9564 73.5675 75.0609 77.0218 85.3772C78.0954 88.5514 78.4222 90.3719 78.4222 93.1727C78.4688 98.4941 79.2157 105.636 80.1493 108.95C81.9698 115.719 86.2177 123.001 90.979 127.669L93.3597 129.956V136.071V142.186L89.8587 146.014C87.9448 148.115 86.3577 150.169 86.3577 150.542C86.3577 151.476 85.8909 151.709 74.2677 155.91C68.5727 157.964 63.0645 160.065 61.9909 160.625C60.1237 161.558 59.9837 161.558 58.3966 160.812L56.7628 160.018L59.9837 158.338C63.8114 156.33 69.7864 150.775 70.2999 148.721C70.4866 147.835 70.2999 146.294 69.6464 144.287C68.1993 139.666 67.7325 136.118 67.219 125.148C66.7056 114.785 66.1454 111.191 64.2315 106.523C60.8239 98.1207 52.9351 91.1188 44.2993 88.8781C40.705 87.9445 34.3565 87.8512 30.8089 88.6447C21.9397 90.7453 13.9108 97.6072 10.2231 106.383C8.2626 111.051 7.60908 115.252 7.04893 126.549C6.53545 136.258 5.69521 142.326 4.38818 145.407C3.96807 146.481 3.78135 147.695 3.96807 148.535C4.43486 150.682 9.89639 155.91 13.9575 158.104L17.3651 160.018L11.8103 162.865C5.55518 166.04 3.22119 168.047 1.44736 171.781L0.233691 174.349L0.0936523 189.613L-0.0463867 204.924L1.12061 206.091C2.61436 207.585 4.38818 207.585 5.83525 206.091L7.00225 204.971V190.733C7.00225 181.771 7.18896 176.029 7.51572 175.189C8.35596 172.902 9.89639 171.781 16.4782 168.467L22.92 165.199L25.8142 167.86C29.2685 170.988 31.1356 172.015 34.5433 172.621C39.7247 173.555 43.7858 172.155 48.5472 167.767L51.3946 165.106L53.2618 165.946C54.6155 166.6 55.0356 167.02 54.8022 167.533C52.3749 173.228 52.5616 171.921 52.3749 188.306C52.1882 204.69 52.3282 205.764 54.4288 206.744C56.0626 207.445 56.6694 207.398 58.0231 206.324L59.2368 205.344L59.3768 189.613L59.5169 173.882L60.8706 171.408C61.6175 170.101 62.9712 168.42 63.8114 167.767C64.6983 167.067 70.4866 164.686 76.695 162.445C82.9034 160.158 88.3183 158.197 88.7851 158.011C89.3919 157.777 90.6522 159.364 94.7134 165.386C97.5608 169.587 100.455 173.462 101.155 173.882C102.929 175.049 106.383 175.329 108.11 174.442C108.857 174.022 110.818 172.341 112.498 170.661C114.132 168.98 115.673 167.58 115.859 167.58C116.046 167.58 116.233 176.076 116.233 186.439V205.344L117.446 206.278C118.147 206.838 118.987 207.258 119.314 207.258C120.667 207.258 122.301 206.091 122.768 204.784C123.048 203.897 123.235 196.755 123.235 185.412V167.44L126.876 170.941C129.63 173.602 130.937 174.582 132.244 174.815C134.344 175.236 136.678 174.815 138.079 173.835C138.686 173.415 141.44 169.634 144.287 165.386C148.348 159.318 149.609 157.777 150.216 158.011C150.636 158.197 156.144 160.205 162.446 162.492C174.862 167.02 176.403 167.907 178.317 171.595C179.484 173.835 179.484 173.929 179.717 189.66L179.95 205.484L181.071 206.371C182.565 207.585 184.198 207.491 185.599 206.091L186.766 204.924L186.626 188.913C186.486 173.695 186.439 172.808 185.412 170.381C184.852 168.98 183.778 166.973 182.985 165.9L181.584 163.939L183.638 163.239L185.645 162.539L190.173 167.067L194.655 171.548V188.259V204.971L195.822 206.091C197.082 207.398 197.782 207.491 199.463 206.744C201.563 205.811 201.657 204.877 201.657 187.746V171.548L206.044 167.16L210.479 162.772L218.321 164.966C227.891 167.72 229.571 168.514 230.971 171.314C231.998 173.322 231.998 173.742 231.998 189.193V204.971L233.165 206.091C234.612 207.585 236.386 207.585 237.833 206.091L239 204.971V188.913C239 171.128 238.814 169.727 236.059 166.086C233.679 162.959 230.925 161.418 224.249 159.458C220.935 158.524 217.061 157.357 215.66 156.937L213.093 156.144L212.953 153.343L212.813 150.542L216.221 147.041C218.088 145.127 220.235 142.466 220.935 141.113C222.896 137.472 224.063 132.197 224.063 127.062C224.063 123.048 224.203 122.301 225.79 118.38L227.564 114.132L227.704 102.742C227.891 89.8117 227.75 88.9715 225.043 88.1779C223.876 87.8512 217.434 87.7578 204.924 87.8512C187.606 88.0379 186.346 88.1313 183.825 89.0648C173.835 92.7525 168.094 101.155 168.607 111.378C168.794 114.505 169.074 115.766 170.521 118.753C172.155 122.161 172.248 122.674 172.248 126.922C172.248 135.324 174.722 141.533 180.277 147.228C183.405 150.355 183.451 150.495 183.451 152.876C183.451 154.463 183.218 155.537 182.751 155.91C182.378 156.237 180.137 157.03 177.71 157.731L173.369 159.038L168.747 157.311C166.18 156.377 161.605 154.696 158.618 153.623C154.37 152.082 153.063 151.382 152.83 150.635C152.643 150.075 150.962 147.881 149.095 145.827L145.641 142V136.305V130.563L149.095 126.969C156.937 118.753 160.018 110.538 160.438 96.8604C160.578 91.0254 160.858 88.8781 161.559 87.0576C163.893 80.8492 163.986 79.9623 164.173 56.9959C164.406 33.9361 164.359 33.2826 162.166 32.2557C161.325 31.8822 152.876 31.7422 132.897 31.7889C109.884 31.7889 104.189 31.9289 101.575 32.5357ZM157.311 56.3424C157.311 75.2943 157.031 78.5619 155.164 83.7434C154.09 86.6375 153.903 88.0846 153.576 95.46C153.11 107.037 151.803 111.891 147.508 117.96C140.973 127.342 130.89 132.617 119.687 132.664C110.071 132.664 102.089 129.256 95.5536 122.301C88.2249 114.599 85.4708 106.336 85.4241 92.1924C85.4241 88.6914 85.1907 87.0576 84.5372 85.6105C82.6233 81.3627 82.0165 77.5816 81.9698 69.5527C81.9231 64.5113 82.1565 60.9637 82.5767 59.2832C84.9106 49.6672 92.286 42.1984 101.855 39.6777C105.03 38.8842 107.224 38.7908 131.31 38.7908L157.311 38.7441V56.3424ZM44.206 96.2068C49.5741 98.0273 54.3354 102.322 56.9495 107.597C58.77 111.331 59.5636 114.599 59.9837 120.2L60.3104 124.868L57.463 121.741C51.3479 115.112 41.4519 110.864 31.5558 110.584L28.3349 110.491L24.227 114.692C20.7728 118.193 20.0726 119.127 20.0726 120.387C20.0726 122.301 21.5196 123.701 23.4802 123.701C24.7405 123.701 25.5341 123.188 28.0081 120.667C31.4157 117.213 31.8358 117.119 37.5774 118.333C44.4394 119.78 51.8147 124.588 54.5688 129.396C55.7358 131.45 55.8292 131.917 55.4558 133.644C53.962 140.413 47.1001 146.481 39.8647 147.461C29.2685 148.955 20.1659 141.906 18.5321 131.03C18.0187 127.529 16.8983 125.568 15.3579 125.568C14.8911 125.568 14.4243 125.428 14.331 125.195C13.9108 124.495 14.9378 114.085 15.6847 111.845C19.8858 98.9143 32.256 92.1457 44.206 96.2068ZM220.702 103.956L220.515 113.198L218.788 117.026C217.201 120.527 217.061 121.134 217.061 125.242C217.061 127.669 216.827 130.796 216.594 132.15C215.1 140.226 208.752 146.294 200.723 147.461C193.674 148.441 187.233 145.594 182.985 139.666C180.277 135.931 179.25 132.15 179.25 126.175C179.25 121.507 179.157 121.087 177.523 117.446C175.283 112.498 174.956 108.857 176.449 104.843C178.317 99.9412 182.938 96.1135 188.073 95.2266C189.24 95.0398 197.129 94.8531 205.578 94.8064L220.889 94.7598L220.702 103.956ZM103.676 136.538C113.572 141.066 125.895 140.739 137.845 135.604C138.592 135.278 138.686 135.511 138.546 138.452L138.406 141.673L128.976 148.115L119.5 154.556L110.071 148.068L100.595 141.579L100.455 138.499C100.362 136.771 100.502 135.371 100.735 135.371C100.968 135.371 102.322 135.885 103.676 136.538ZM19.5124 147.601C22.3132 150.309 22.4532 150.542 22.3132 152.409L22.1731 154.416L18.8122 152.783C16.9917 151.849 14.5177 150.262 13.3507 149.188L11.2501 147.274L12.2304 143.26L13.2573 139.199L14.8911 142C15.778 143.493 17.8786 146.014 19.5124 147.601ZM62.131 143.353L63.0645 147.274L60.9173 149.282C59.7036 150.355 57.2296 151.989 55.3624 152.876L52.0481 154.463L51.9081 152.596C51.7681 150.775 51.9081 150.542 54.9423 147.601C56.8095 145.781 58.7233 143.353 59.5169 141.813C60.2638 140.366 60.964 139.246 61.0573 139.292C61.104 139.386 61.6175 141.206 62.131 143.353ZM108.017 155.21L113.992 159.271L109.651 163.659C107.27 166.04 105.216 167.907 105.03 167.813C104.89 167.72 102.369 164.032 99.428 159.645L94.1532 151.662L95.927 149.842L97.7009 148.021L99.8481 149.562C101.015 150.402 104.703 152.923 108.017 155.21ZM144.707 151.849C144.707 152.129 134.905 167.113 134.111 168.047C134.018 168.14 131.917 166.226 129.443 163.752L125.008 159.318L133.271 153.623L141.58 147.975L143.12 149.748C143.96 150.682 144.661 151.616 144.707 151.849ZM34.2165 154.51C37.0173 154.837 42.4321 154.463 44.2526 153.81C44.6261 153.67 44.8128 154.183 44.8128 155.583C44.8128 156.657 44.9995 158.291 45.2796 159.178C45.6997 160.625 45.6063 160.905 44.4394 162.119C39.9581 166.88 36.037 167.16 31.1356 163.099C28.755 161.185 28.5683 160.858 28.9884 159.831C29.2218 159.178 29.4085 157.497 29.4085 156.05C29.4085 153.81 29.5019 153.529 30.202 153.763C30.6688 153.95 32.4427 154.276 34.2165 154.51ZM194.888 154.51C197.409 154.93 203.15 154.51 205.064 153.763C205.718 153.529 205.858 153.763 205.858 155.303C205.858 156.937 205.531 157.451 201.89 161.045L197.922 165.013L194.001 161.045C190.267 157.217 190.127 156.984 190.313 155.303C190.5 153.856 190.733 153.576 191.387 153.81C191.854 153.95 193.441 154.276 194.888 154.51Z" fill="white"/>
<path d="M107.597 63.7645C93.8264 65.0715 93.0796 65.3049 91.1657 68.199C90.1854 69.6928 89.952 70.7197 89.7186 74.174C89.3452 80.8959 90.3722 83.5566 93.2663 83.5566C95.927 83.5566 96.3938 82.7164 96.6272 77.2082L96.8606 72.1668L98.2143 71.84C101.575 70.9064 114.366 70.393 120.294 70.9064C130.563 71.84 136.445 73.7072 141.86 77.7684C143.4 78.9354 145.127 79.8223 145.781 79.8223C147.601 79.8223 149.049 78.3752 149.049 76.5547C149.049 75.2477 148.628 74.5941 146.761 72.867C142.373 68.8525 135.278 65.865 127.109 64.6514C122.534 63.9512 110.958 63.4377 107.597 63.7645Z" fill="white"/>
<path d="M185.365 107.177C183.078 108.157 182.798 111.845 184.899 113.012C185.412 113.292 188.4 113.712 191.527 113.898C197.689 114.365 203.01 115.252 206.278 116.419C209.265 117.493 210.759 117.399 211.879 115.952C213.933 113.338 212.44 111.144 207.398 109.464C201.376 107.457 188.026 106.056 185.365 107.177Z" fill="white"/>
<path d="M218.041 179.063C217.107 180.23 217.061 180.884 217.061 192.647V204.971L218.228 206.091C218.834 206.744 219.908 207.258 220.562 207.258C221.215 207.258 222.289 206.744 222.896 206.091L224.062 204.971V192.554V180.137L222.896 179.017C221.355 177.429 219.301 177.476 218.041 179.063Z" fill="white"/>
<path d="M15.9178 183.731C14.9842 184.898 14.9375 185.552 14.9375 194.981C14.9375 204.971 14.9375 204.971 16.1045 206.091C17.5516 207.585 19.3254 207.585 20.7725 206.091L21.9395 204.971V194.748C21.9395 184.712 21.9395 184.525 20.8658 183.545C19.3254 182.097 17.1314 182.191 15.9178 183.731Z" fill="white"/>
<path d="M76.4151 185.879C75.0147 186.952 74.688 189.053 74.688 196.241C74.688 204.037 75.0614 205.904 76.8353 206.744C78.469 207.491 79.0292 207.398 80.4763 206.278L81.6899 205.344V196.335C81.6899 187.559 81.6433 187.326 80.6163 186.345C79.4026 185.225 77.5821 185.038 76.4151 185.879Z" fill="white"/>
<path d="M158.338 186.392C157.357 187.419 157.311 187.886 157.311 196.241C157.311 204.877 157.311 204.971 158.478 206.091C159.738 207.398 160.438 207.491 162.165 206.744C164.126 205.857 164.406 204.317 164.219 195.354C164.079 187.326 164.032 187.092 162.959 186.205C161.465 184.992 159.551 185.085 158.338 186.392Z" fill="white"/>
</g>
<defs>
<clipPath id="clip0_36_2">
<rect width="239" height="239" fill="white"/>
</clipPath>
</defs>
</svg>
